<?xml version="1.0" encoding="utf-8"?>
<!-- Generator: Adobe Illustrator 20.1.0, SVG Export Plug-In . SVG Version: 6.00 Build 0)  -->
<svg version="1.1" id="レイヤー_1" xmlns="http://www.w3.org/2000/svg" xmlns:xlink="http://www.w3.org/1999/xlink" x="0px"
	 y="0px" viewBox="0 0 267.8 352.5" style="enable-background:new 0 0 267.8 352.5;" xml:space="preserve">
<style type="text/css">
	.st0{fill:#040000;}
	.st1{fill:#FFFFFF;}
</style>
<g>
	<path class="st0" d="M214.6,149.6c0,0-2.4-69.6-10.4-103.1c0.4-0.1,0.7-0.2,1.1-0.4c13.9-6,15-36.4-7.9-42.6
		C170.3-3.8,166,24,166.5,24.6c-19.2-1-43.4-0.7-62.9-0.1C103.9,19.8,94.9-2,72,4.3C49,10.6,50.1,40.9,64,46.9
		c0.3,0.1,0.7,0.3,1.1,0.4c-5.2,33.1-14.7,95.1-11.8,103.1l0,0c-7.2,9.6-46.3,80.8-44.8,86.7c1.5,6,27.4,17.3,29.8,15
		c1.2-1.2,4.9-7.8,8.3-14.2c-2.5,48.9-2.3,101.3,9.6,107.5c9.4,4.9,32,6.6,31.5,0c-0.4-5.8-0.7-13.2-0.2-19.7h89.9
		c0.5,6.5,0.1,13.9-0.2,19.7c-0.4,6.6,22.1,4.9,31.5,0c11.9-6.2,13-59.1,11.2-108.2c3.6,6.8,7.8,14.4,9.1,15.6
		c2.4,2.4,28.3-9,29.8-15c1.5-5.9-36-74.2-44.3-86c-0.1-1-0.1-1.5-0.1-1.5V149.6z"/>
</g>
<g>
	<path class="st1" d="M135.9,93l4.2-6.1h2.8v16.4h-3.3V93.1l-3.5,5.1h-0.5l-3.5-5.1v10.2h-3.3V87h2.8L135.9,93z"/>
</g>
<path class="st1" d="M81,17.1h-2.8h-4.2c-1.3,0-2.3,1-2.3,2.3v8.1c0,1.3,1,2.3,2.3,2.3l4.2,1v5.5h5.1v-8.8v-8.1v-2.3H81z M76.6,27
	v-6.7h1.6V27H76.6z"/>
<path class="st1" d="M187,35.1h2.8h4.2c1.3,0,2.3-1,2.3-2.3v-8.1c0-1.3-1-2.3-2.3-2.3h-4.2v-6.5h-5.1v8.8v8.1v2.3H187z M191.4,25.1
	v6.7h-1.6v-6.7H191.4z"/>
<path class="st1" d="M117.3,81.2h-4.8c-1.2,0-2.2,1-2.2,2.2v11c0,1.2,1,2.2,2.2,2.2h4.8c1.2,0,2.2-1,2.2-2.2v-11
	C119.5,82.2,118.5,81.2,117.3,81.2z"/>
<path class="st1" d="M158.7,81.2h-4.8c-1.2,0-2.2,1-2.2,2.2v11c0,1.2,1,2.2,2.2,2.2h4.8c1.2,0,2.2-1,2.2-2.2v-11
	C160.9,82.2,159.9,81.2,158.7,81.2z"/>
</svg>
