<?xml version="1.0" encoding="utf-8"?>
<!-- Generator: Adobe Illustrator 21.0.2, SVG Export Plug-In . SVG Version: 6.00 Build 0)  -->
<svg version="1.1" id="レイヤー_1" xmlns="http://www.w3.org/2000/svg" xmlns:xlink="http://www.w3.org/1999/xlink" x="0px"
	 y="0px" viewBox="0 0 395 84" style="enable-background:new 0 0 395 84;" xml:space="preserve">
<g>
	<path d="M36.6,31.4l21.5-31h14.5v83.5H55.9V31.8L37.9,58h-2.5l-18-26.2v52.1H0.7V0.4h14.4L36.6,31.4z"/>
</g>
<g>
	<path d="M209.7,0.4v83.5h-14l-36.9-53.5v53.5h-16.6V0.4h15.3l35.7,51v-51H209.7z"/>
</g>
<path d="M319,0h-12h-18c-5.5,0-10,4.5-10,10v35c0,5.5,4.5,10,10,10h18v28h22V45V10V0H319z M300,43V14h7v29H300z"/>
<path d="M349,83h12h18c5.5,0,10-4.5,10-10V38c0-5.5-4.5-10-10-10h-18V0h-22v38v35v10H349z M368,40v29h-7V40H368z"/>
<path d="M121,0H95c-6.6,0-12,5.4-12,12v60c0,6.6,5.4,12,12,12h26c6.6,0,12-5.4,12-12V12C133,5.4,127.6,0,121,0z M112,69h-9V14h9V69z
	"/>
<path d="M257,0h-26c-6.6,0-12,5.4-12,12v60c0,6.6,5.4,12,12,12h26c6.6,0,12-5.4,12-12V12C269,5.4,263.6,0,257,0z M248,69h-9V14h9V69
	z"/>
</svg>
