<?xml version="1.0" encoding="utf-8"?>
<!-- Generator: Adobe Illustrator 20.1.0, SVG Export Plug-In . SVG Version: 6.00 Build 0)  -->
<svg version="1.1" id="レイヤー_1" xmlns="http://www.w3.org/2000/svg" xmlns:xlink="http://www.w3.org/1999/xlink" x="0px"
	 y="0px" viewBox="0 0 100 70.5" style="enable-background:new 0 0 100 70.5;" xml:space="preserve">
<style type="text/css">
	.st0{fill:#FFFFFF;}
	.st1{fill:#040000;}
	.st2{fill:#F7F8F8;}
	.st3{clip-path:url(#SVGID_2_);}
</style>
<g>
	<path class="st0" d="M3.2,91.6c0.6,2.3,10.4,6.5,11.3,5.6c0.4-0.4,1.8-2.9,3.1-5.3c-1,18.5-0.9,38.2,3.6,40.6
		c3.6,1.9,12.1,2.5,11.9,0c-0.1-2.2-0.3-5-0.1-7.4H67c0.2,2.4,0.1,5.2-0.1,7.4c-0.2,2.5,8.3,1.9,11.9,0c4.5-2.4,4.9-22.3,4.2-40.8
		c1.4,2.6,2.9,5.4,3.4,5.9c0.9,0.9,10.7-3.4,11.3-5.6c0.6-2.2-13.6-28-16.7-32.5c0-0.4-0.1-0.6-0.1-0.6v-0.3c0,0-0.9-26.3-3.9-38.9
		c0.1,0,0.3-0.1,0.4-0.1c5.3-2.3,5.7-13.7-3-16.1c-10.2-2.8-11.8,7.8-11.6,8c-7.2-0.4-16.4-0.3-23.7,0c0.1-1.8-3.3-10-12-7.6
		c-8.7,2.4-8.2,13.8-3,16.1c0.1,0.1,0.3,0.1,0.4,0.1c-2,12.5-5.5,35.9-4.4,38.9l0,0C17.4,62.5,2.7,89.3,3.2,91.6"/>
	<g>
		<path class="st1" d="M2,92.3c1.4,3.1,6.5,5,9.5,5.9c4.6,1.4,5.3-1.8,7.4-5.6c-0.9-0.2-1.8-0.5-2.6-0.7c-0.4,9-0.8,18.1-0.2,27
			c0.3,4.1,0.3,10.2,3.2,13.6c2.4,2.8,8,3.4,11.4,2.9c5.7-0.7,3.6-5.9,3.9-10.4c-0.5,0.5-0.9,0.9-1.4,1.4c11.3,0,22.6,0,33.9,0
			c-0.5-0.5-0.9-0.9-1.4-1.4c0.2,4.4-1.8,9.6,3.9,10.4c3.4,0.4,9-0.1,11.4-2.9c2.9-3.4,3-9.5,3.4-13.7c0.8-9,0.5-18.1,0.2-27.2
			c-0.9,0.2-1.8,0.5-2.6,0.7c2.1,3.9,2.9,7.7,7.7,6.2c2.8-0.9,8.4-2.8,9.5-5.9c0.7-2.1-1-4.8-1.9-6.6c-2.2-4.8-4.7-9.4-7.2-14.1
			c-2.2-4-4.7-7.8-6.7-11.8c-1.1-2.1-0.9-3.9-1-6.3c-0.6-11.5-1.2-23.3-3.8-34.6c-0.3,0.6-0.7,1.2-1,1.7c8.4-3,5.7-15.6-1.3-18.5
			c-4.1-1.7-8.9-1.2-11.9,2.2c-1.5,1.7-3.2,4.7-2.8,7.1c0.5-0.6,0.9-1.2,1.4-1.8c-7.9-0.4-15.8-0.3-23.7,0c0.5,0.5,0.9,0.9,1.4,1.4
			C40.1,3,29.7-0.4,23.4,3.9c-5.5,3.9-6.5,14.8,0.8,17.4c-0.3-0.6-0.7-1.2-1-1.7c-1.3,8.6-2.7,17.3-3.7,25.9c-0.4,3.6-1,7.3-1,11
			c0,2.8,0.4,1.5-1.1,3.9c-3.6,5.8-6.8,11.9-10,18c-1.7,3.3-6,9.2-5.7,13.2c0.2,1.8,3,1.8,2.8,0c-0.1-1.6,1.4-3.8,2-5.2
			c1.4-3,3-6,4.5-8.9c3-5.6,6.1-11.1,9.4-16.6c2-3.4,1.1-9.4,1.6-13.5c1-9,2.4-18,3.8-27c0.1-0.8-0.2-1.5-1-1.7
			c-5.5-2-3-10.6,0.8-12.8c4.3-2.5,11.7-0.1,12,5.5c0,0.7,0.6,1.4,1.4,1.4c7.9-0.2,15.8-0.3,23.7,0c1,0,1.5-0.9,1.4-1.8
			c-0.7-4.2,5.5-7,8.8-6.4c3.5,0.6,6.1,2.8,6.7,6.3c0.5,2.6-0.2,6.4-3,7.4c-0.7,0.3-1.2,0.9-1,1.7c2.3,10,2.9,20.4,3.5,30.6
			c0.1,2.6,0,5.3,0.4,7.9c0.3,2.1,1.5,3.6,2.6,5.5c4.3,7.2,8.3,14.7,12,22.3c0.6,1.2,1.8,3.1,1.9,4.5c0.1,1.5,0.1,1.2-1.5,2.3
			c-1.6,1.1-4,2.6-5.8,2.8c0,0-1.5,0.5-1.5,0.5c-0.9-0.3-2.6-4.5-3-5.3c-0.7-1.2-2.7-0.7-2.6,0.7c0.4,10.8,1,22-0.9,32.7
			c-0.6,3.7-1.1,6.7-5.1,7.7c-1,0.3-5.6,1.3-6.6,0.4c-1.4-1.2-0.5-5.8-0.5-7.5c0-0.8-0.6-1.4-1.4-1.4c-11.3,0-22.6,0-33.9,0
			c-0.8,0-1.4,0.6-1.4,1.4c-0.1,1.5,0.7,6.5-0.5,7.5c-1.2,0.9-5.4-0.1-6.6-0.4c-4.1-1-4.5-4.3-5.1-8.1c-1.6-10.5-0.9-21.5-0.3-32.1
			c0.1-1.4-2-1.9-2.6-0.7c-0.5,0.9-1.8,4.5-2.7,4.8c-0.1,0-2-0.7-2.3-0.8c-2.1-0.8-5.9-2.2-6.9-4.3C3.7,89.2,1.3,90.7,2,92.3L2,92.3
			z"/>
	</g>
</g>
<g>
	<path class="st1" d="M51.3,37.2l1.6-2.3H54v6.2h-1.2v-3.9l-1.3,1.9h-0.2l-1.3-1.9v3.9h-1.2v-6.2h1.1L51.3,37.2z"/>
</g>
<path class="st1" d="M30.6,8.5h-1H28c-0.5,0-0.9,0.4-0.9,0.9v3.1c0,0.5,0.4,0.9,0.9,0.9l1.6,0.4v2.1h1.9v-3.3V9.4V8.5H30.6z
	 M28.9,12.3V9.8h0.6v2.5H28.9z"/>
<path class="st1" d="M70.6,15.3h1h1.6c0.5,0,0.9-0.4,0.9-0.9v-3.1c0-0.5-0.4-0.9-0.9-0.9h-1.6V8.1h-1.9v3.3v3.1v0.9H70.6z
	 M72.2,11.6v2.5h-0.6v-2.5H72.2z"/>
<path class="st1" d="M44.3,32.7h-1.8c-0.5,0-0.8,0.4-0.8,0.8v4.2c0,0.5,0.4,0.8,0.8,0.8h1.8c0.5,0,0.8-0.4,0.8-0.8v-4.2
	C45.1,33.1,44.7,32.7,44.3,32.7z"/>
<path class="st1" d="M59.9,32.7h-1.8c-0.5,0-0.8,0.4-0.8,0.8v4.2c0,0.5,0.4,0.8,0.8,0.8h1.8c0.5,0,0.8-0.4,0.8-0.8v-4.2
	C60.7,33.1,60.3,32.7,59.9,32.7z"/>
<g id="風呂敷">
	<g>
		<g>
			<path class="st0" d="M47.6,55.5c0,0-28-2.4-27.2-8.5c0,0-3.5,3.8-2.7,8.2c0.3,1.4,0.9,2.6,2.2,3C25,59.9,40.2,63.7,47.6,55.5z"/>
			<g>
				<path d="M47.6,54.6c-3.9-0.3-7.8-0.9-11.7-1.6c-2.8-0.5-14.6-1.9-14.6-6c0-0.8-1.1-1.3-1.6-0.7c-2.1,2.4-3.6,5.8-2.9,9
					c0.8,3.6,3.6,4.1,6.8,4.9c8.3,1.9,18.2,2.4,24.7-4c0.9-0.9-0.5-2.2-1.3-1.3c-5,5-12.1,5.3-18.7,4.3c-2.1-0.3-4.8-0.5-6.7-1.4
					c-4.5-2.1-3-7.1-0.5-10c-0.5-0.2-1.1-0.4-1.6-0.7c-0.1,4.9,8.8,6.3,12.1,7c5.3,1.2,10.7,1.9,16.1,2.4
					C48.8,56.6,48.8,54.7,47.6,54.6z"/>
			</g>
		</g>
		<g>
			<path class="st0" d="M53.5,55.5c4-0.3,28-2.1,27.2-8.5c0,0,3.5,3.8,2.7,8.2c-0.3,1.4-0.9,2.6-2.2,3C76,59.9,60.9,63.7,53.5,55.5z
				"/>
			<g>
				<path d="M53.5,56.5c5.9-0.5,11.9-1.1,17.7-2.4c3.4-0.8,10.6-2.3,10.5-7c-0.5,0.2-1.1,0.4-1.6,0.7c2.6,3,3.9,7.8-0.5,10
					c-1.9,1-4.7,1.1-6.7,1.4c-6.6,0.9-13.7,0.6-18.7-4.3c-0.9-0.9-2.2,0.5-1.3,1.3c6.5,6.5,16.3,6,24.7,4c3.1-0.7,6-1.2,6.8-4.7
					c0.7-3.2-0.8-6.7-2.9-9.1c-0.5-0.6-1.6-0.1-1.6,0.7c0.2,6.5-21.8,7.2-26.3,7.5C52.3,54.7,52.3,56.6,53.5,56.5z"/>
			</g>
		</g>
		<g>
			<g>
				<path class="st0" d="M52.6,56.9c8.7,0.1,7.1,8.1,7.1,8.1l0,0.2c-7.5-0.1-7.1-8.3-7.1-8.2L52.6,56.9z"/>
				<g>
					<path d="M52.6,57.8c2.7,0.1,5.3,1.1,6,3.9c0.3,1.1,0.2,2.3,0.1,3.1c0.3-0.2,0.6-0.5,0.9-0.7c-4.1-0.1-6.3-3.4-6.2-7.3
						c-0.3,0.3-0.6,0.6-0.9,0.9C52.6,57.8,52.6,57.8,52.6,57.8c1.2,0,1.2-1.9,0-1.9c0,0-0.1,0-0.1,0c-0.5,0-0.9,0.4-0.9,0.9
						c-0.1,4.9,3,9,8.1,9.2c0.4,0,0.8-0.3,0.9-0.7c0.3-1.6,0.2-3.2-0.3-4.8c-1.2-3.3-4.3-4.6-7.6-4.7C51.4,55.9,51.4,57.8,52.6,57.8
						z"/>
				</g>
			</g>
			<g>
				<path class="st0" d="M49.6,56.8C41,56.9,43,64.8,43,64.8l0,0.2c8.7-0.1,6.7-8.2,6.7-8.2L49.6,56.8z"/>
				<g>
					<path d="M49.6,55.8c-3.2,0.1-6.4,1.3-7.4,4.7c-0.5,1.6-0.3,3.2-0.1,4.8c0.1,0.4,0.5,0.7,0.9,0.7c3.2-0.1,6.3-1.3,7.4-4.5
						c0.5-1.5,0.6-3.3,0.2-4.9c-0.1-0.4-0.5-0.7-0.9-0.7C49.7,55.8,49.6,55.8,49.6,55.8c-1.2,0-1.2,1.9,0,1.9c0,0,0.1,0,0.1,0
						c-0.3-0.2-0.6-0.5-0.9-0.7c0.2,1,0.2,2.2,0,3.2c-0.7,2.8-3.1,3.7-5.8,3.8c0.3,0.2,0.6,0.5,0.9,0.7c-0.2-1-0.3-2.1-0.1-3.1
						c0.5-2.9,3.1-3.9,5.8-3.9C50.8,57.7,50.8,55.8,49.6,55.8z"/>
				</g>
			</g>
			<g>
				<path class="st2" d="M54.4,56.8c0,1.7-0.9,3-2.6,3c-1.7,0-3.4-1.3-3.4-3c0-1.7,1.3-3,3-3S54.4,55.1,54.4,56.8z"/>
				<g>
					<path class="st1" d="M53.5,56.8c0,1-0.5,2-1.6,2.1c-1.1,0-2.3-0.8-2.5-1.9C49,54.3,53.3,54,53.5,56.8c0.1,1.2,2,1.2,1.9,0
						c-0.1-2.1-1.7-3.9-3.9-3.9c-2.2,0-4,1.9-3.9,4.1c0.1,2.1,2.2,3.7,4.2,3.8c2.3,0.1,3.6-1.8,3.7-3.9
						C55.4,55.6,53.5,55.6,53.5,56.8z"/>
				</g>
			</g>
		</g>
	</g>
	<g>
		<defs>
			<path id="SVGID_1_" d="M20.3,58.3c-1.3-0.4-1.9-1.7-2.2-3c-0.9-4.4,2.7-8.2,2.7-8.2C20,53.1,48,55.5,48,55.5
				C40.6,63.7,25.4,59.9,20.3,58.3z M81.6,58.3c1.3-0.4,1.9-1.7,2.2-3c0.9-4.4-2.7-8.2-2.7-8.2c0.8,6.4-23.2,8.1-27.2,8.5
				C61.3,63.7,76.4,59.9,81.6,58.3z M52,56.9c0,0-0.3,8.2,7.1,8.2l0-0.2c0,0,1.6-8-7.1-8.1L52,56.9z M49.1,56.8
				c-8.7,0.1-6.6,8.1-6.6,8.1l0,0.2c8.7-0.1,6.7-8.2,6.7-8.2L49.1,56.8z M50.9,53.8c-1.7,0-3,1.3-3,3s1.8,3,3.4,3
				c1.7,0,2.6-1.3,2.6-3S52.5,53.8,50.9,53.8z"/>
		</defs>
		<clipPath id="SVGID_2_">
			<use xlink:href="#SVGID_1_"  style="overflow:visible;"/>
		</clipPath>
		<g class="st3">
			<g>
				<path d="M18.9,60.4l2.2-2.2c0.6-0.6,0.6-0.7,0.2-1.1l-0.7-0.7c0.1,0.5,0,0.5-0.4,1L19,58.5c-0.7,0.7-1.3,0.7-1.9,0.1l-0.8-0.8
					c-0.5-0.5-0.7-0.8-0.7-1.2c0-0.4,0.3-0.9,0.6-1.2l1.5-1.5c0.9-0.9,1.6-0.8,2.7,0.3l1.9,1.9c0.7,0.7,0.8,0.9,0.8,1.4
					c0,0.4-0.2,0.8-0.7,1.3l-2.6,2.6L18.9,60.4z M17.8,57.2c0.3,0.3,0.4,0.3,0.7,0l1.1-1.1c0.2-0.3,0.2-0.3,0-0.6L19.1,55
					c-0.3-0.3-0.4-0.3-0.8,0.1L17.4,56c-0.3,0.3-0.3,0.5,0,0.8L17.8,57.2z"/>
				<path d="M24.4,49l-2.3,2.3c-0.4,0.4-0.4,0.6,0,1l0.5,0.5c0.1-0.3,0.1-0.3,0.3-0.5l1-1c0.9-0.9,1.6-1.1,2.5-0.4l1,1
					c0.6,0.7,0.5,1.5-0.2,2.2l-1.3,1.3c-0.6,0.6-0.9,0.7-1.4,0.7c-0.5,0-1-0.3-1.5-0.8l-1.8-1.8c-0.5-0.5-0.6-0.6-0.7-0.8
					c-0.4-0.8-0.3-1.4,0.5-2.1l2.5-2.5L24.4,49z M26,53.3c0.3-0.3,0.3-0.5,0-0.7l-0.5-0.5c-0.3-0.3-0.5-0.3-0.8,0L23.9,53
					c-0.4,0.4-0.4,0.6-0.1,0.9l0.5,0.5c0.3,0.3,0.4,0.3,0.7,0L26,53.3z"/>
			</g>
			<g>
				<path d="M30.9,70.1l2.2-2.2c0.6-0.6,0.6-0.7,0.2-1.1l-0.7-0.7c0.1,0.5,0,0.5-0.4,1L31,68.2c-0.7,0.7-1.3,0.7-1.9,0.1l-0.8-0.8
					c-0.5-0.5-0.7-0.8-0.7-1.2c0-0.4,0.3-0.9,0.6-1.2l1.5-1.5c0.9-0.9,1.6-0.8,2.7,0.3l1.9,1.9c0.7,0.7,0.8,0.9,0.8,1.4
					c0,0.4-0.2,0.8-0.7,1.3L31.8,71L30.9,70.1z M29.8,66.9c0.3,0.3,0.4,0.3,0.7,0l1.1-1.1c0.2-0.3,0.2-0.3,0-0.6l-0.5-0.5
					c-0.3-0.3-0.4-0.3-0.8,0.1l-0.9,0.9c-0.3,0.3-0.3,0.5,0,0.8L29.8,66.9z"/>
				<path d="M36.4,58.7L34.1,61c-0.4,0.4-0.4,0.6,0,1l0.5,0.5c0.1-0.3,0.1-0.3,0.3-0.5l1-1c0.9-0.9,1.6-1.1,2.5-0.4l1,1
					c0.6,0.7,0.5,1.5-0.2,2.2L37.8,65c-0.6,0.6-0.9,0.7-1.4,0.7c-0.5,0-1-0.3-1.5-0.8l-1.8-1.8c-0.5-0.5-0.6-0.6-0.7-0.8
					c-0.4-0.8-0.3-1.4,0.5-2.1l2.5-2.5L36.4,58.7z M38,63c0.3-0.3,0.3-0.5,0-0.7l-0.5-0.5c-0.3-0.3-0.5-0.3-0.8,0l-0.9,0.9
					c-0.4,0.4-0.4,0.6-0.1,0.9l0.5,0.5c0.3,0.3,0.4,0.3,0.7,0L38,63z"/>
			</g>
			<g>
				<path d="M40.1,60.9l2.2-2.2c0.6-0.6,0.6-0.7,0.2-1.1l-0.7-0.7c0.1,0.5,0,0.5-0.4,1l-1.1,1.1c-0.7,0.7-1.3,0.7-1.9,0.1l-0.8-0.8
					c-0.5-0.5-0.7-0.8-0.7-1.2c0-0.4,0.3-0.9,0.6-1.2l1.5-1.5c0.9-0.9,1.6-0.8,2.7,0.3l1.9,1.9c0.7,0.7,0.8,0.9,0.8,1.4
					c0,0.4-0.2,0.8-0.7,1.3L41,61.8L40.1,60.9z M38.9,57.7c0.3,0.3,0.4,0.3,0.7,0l1.1-1.1c0.2-0.3,0.2-0.3,0-0.6l-0.5-0.5
					c-0.3-0.3-0.4-0.3-0.8,0.1l-0.9,0.9c-0.3,0.3-0.3,0.5,0,0.8L38.9,57.7z"/>
				<path d="M45.6,49.5l-2.3,2.3c-0.4,0.4-0.4,0.6,0,1l0.5,0.5c0.1-0.3,0.1-0.3,0.3-0.5l1-1c0.9-0.9,1.6-1.1,2.5-0.4l1,1
					c0.6,0.7,0.5,1.5-0.2,2.2L47,55.8c-0.6,0.6-0.9,0.7-1.4,0.7c-0.5,0-1-0.3-1.5-0.8L42.3,54c-0.5-0.5-0.6-0.6-0.7-0.8
					c-0.4-0.8-0.3-1.4,0.5-2.1l2.5-2.5L45.6,49.5z M47.2,53.8c0.3-0.3,0.3-0.5,0-0.7l-0.5-0.5c-0.3-0.3-0.5-0.3-0.8,0l-0.9,0.9
					c-0.4,0.4-0.4,0.6-0.1,0.9l0.5,0.5c0.3,0.3,0.4,0.3,0.7,0L47.2,53.8z"/>
			</g>
			<g>
				<path d="M40.3,73.4l2.2-2.2c0.6-0.6,0.6-0.7,0.2-1.1L42,69.4c0.1,0.5,0,0.5-0.4,1l-1.1,1.1c-0.7,0.7-1.3,0.7-1.9,0.1l-0.8-0.8
					c-0.5-0.5-0.7-0.8-0.7-1.2c0-0.4,0.3-0.9,0.6-1.2l1.5-1.5c0.9-0.9,1.6-0.8,2.7,0.3l1.9,1.9c0.7,0.7,0.8,0.9,0.8,1.4
					c0,0.4-0.2,0.8-0.7,1.3l-2.6,2.6L40.3,73.4z M39.2,70.2c0.3,0.3,0.4,0.3,0.7,0l1.1-1.1c0.2-0.3,0.2-0.3,0-0.6L40.5,68
					c-0.3-0.3-0.4-0.3-0.8,0.1L38.8,69c-0.3,0.3-0.3,0.5,0,0.8L39.2,70.2z"/>
				<path d="M45.8,62l-2.3,2.3c-0.4,0.4-0.4,0.6,0,1l0.5,0.5c0.1-0.3,0.1-0.3,0.3-0.5l1-1c0.9-0.9,1.6-1.1,2.5-0.4l1,1
					c0.6,0.7,0.5,1.5-0.2,2.2l-1.3,1.3c-0.6,0.6-0.9,0.7-1.4,0.7c-0.5,0-1-0.3-1.5-0.8l-1.8-1.8c-0.5-0.5-0.6-0.6-0.7-0.8
					c-0.4-0.8-0.3-1.4,0.5-2.1l2.5-2.5L45.8,62z M47.4,66.3c0.3-0.3,0.3-0.5,0-0.7L47,65.1c-0.3-0.3-0.5-0.3-0.8,0l-0.9,0.9
					c-0.4,0.4-0.4,0.6-0.1,0.9l0.5,0.5c0.3,0.3,0.4,0.3,0.7,0L47.4,66.3z"/>
			</g>
			<g>
				<path d="M49.5,64.2l2.2-2.2c0.6-0.6,0.6-0.7,0.2-1.1l-0.7-0.7c0.1,0.5,0,0.5-0.4,1l-1.1,1.1c-0.7,0.7-1.3,0.7-1.9,0.1l-0.8-0.8
					c-0.5-0.5-0.7-0.8-0.7-1.2c0-0.4,0.3-0.9,0.6-1.2l1.5-1.5c0.9-0.9,1.6-0.8,2.7,0.3l1.9,1.9c0.7,0.7,0.8,0.9,0.8,1.4
					c0,0.4-0.2,0.8-0.7,1.3l-2.6,2.6L49.5,64.2z M48.4,61c0.3,0.3,0.4,0.3,0.7,0l1.1-1.1c0.2-0.3,0.2-0.3,0-0.6l-0.5-0.5
					c-0.3-0.3-0.4-0.3-0.8,0.1L48,59.8c-0.3,0.3-0.3,0.5,0,0.8L48.4,61z"/>
				<path d="M55,52.8l-2.3,2.3c-0.4,0.4-0.4,0.6,0,1l0.5,0.5c0.1-0.3,0.1-0.3,0.3-0.5l1-1c0.9-0.9,1.6-1.1,2.5-0.4l1,1
					c0.6,0.7,0.5,1.5-0.2,2.2l-1.3,1.3c-0.6,0.6-0.9,0.7-1.4,0.7c-0.5,0-1-0.3-1.5-0.8l-1.8-1.8c-0.5-0.5-0.6-0.6-0.7-0.8
					c-0.4-0.8-0.3-1.4,0.5-2.1l2.5-2.5L55,52.8z M56.6,57.1c0.3-0.3,0.3-0.5,0-0.7L56.2,56c-0.3-0.3-0.5-0.3-0.8,0l-0.9,0.9
					c-0.4,0.4-0.4,0.6-0.1,0.9l0.5,0.5c0.3,0.3,0.4,0.3,0.7,0L56.6,57.1z"/>
			</g>
			<g>
				<path d="M50.8,74.4l2.2-2.2c0.6-0.6,0.6-0.7,0.2-1.1l-0.7-0.7c0.1,0.5,0,0.5-0.4,1l-1.1,1.1c-0.7,0.7-1.3,0.7-1.9,0.1l-0.8-0.8
					c-0.5-0.5-0.7-0.8-0.7-1.2c0-0.4,0.3-0.9,0.6-1.2l1.5-1.5c0.9-0.9,1.6-0.8,2.7,0.3l1.9,1.9c0.7,0.7,0.8,0.9,0.8,1.4
					c0,0.4-0.2,0.8-0.7,1.3l-2.6,2.6L50.8,74.4z M49.6,71.2c0.3,0.3,0.4,0.3,0.7,0l1.1-1.1c0.2-0.3,0.2-0.3,0-0.6L50.9,69
					c-0.3-0.3-0.4-0.3-0.8,0.1L49.2,70c-0.3,0.3-0.3,0.5,0,0.8L49.6,71.2z"/>
				<path d="M56.2,63L54,65.2c-0.4,0.4-0.4,0.6,0,1l0.5,0.5c0.1-0.3,0.1-0.3,0.3-0.5l1-1c0.9-0.9,1.7-1.1,2.5-0.4l1,1
					c0.6,0.7,0.5,1.5-0.2,2.2l-1.3,1.3c-0.6,0.6-0.9,0.7-1.4,0.7c-0.5,0-1-0.3-1.5-0.8L53,67.4c-0.5-0.5-0.6-0.6-0.7-0.8
					c-0.4-0.8-0.3-1.4,0.5-2.1l2.5-2.5L56.2,63z M57.8,67.3c0.3-0.3,0.3-0.5,0-0.7l-0.5-0.5c-0.3-0.3-0.5-0.3-0.8,0l-0.9,0.9
					c-0.4,0.4-0.4,0.6-0.1,0.9l0.5,0.5c0.3,0.3,0.4,0.3,0.7,0L57.8,67.3z"/>
			</g>
			<g>
				<path d="M60,65.2l2.2-2.2c0.6-0.6,0.6-0.7,0.2-1.1l-0.7-0.7c0.1,0.5,0,0.5-0.4,1l-1.1,1.1c-0.7,0.7-1.3,0.7-1.9,0.1l-0.8-0.8
					c-0.5-0.5-0.7-0.8-0.7-1.2c0-0.4,0.3-0.9,0.6-1.2l1.5-1.5c0.9-0.9,1.6-0.8,2.7,0.3l1.9,1.9c0.7,0.7,0.8,0.9,0.8,1.4
					c0,0.4-0.2,0.8-0.7,1.3l-2.6,2.6L60,65.2z M58.8,62c0.3,0.3,0.4,0.3,0.7,0l1.1-1.1c0.2-0.3,0.2-0.3,0-0.6l-0.5-0.5
					c-0.3-0.3-0.4-0.3-0.8,0.1l-0.9,0.9c-0.3,0.3-0.3,0.5,0,0.8L58.8,62z"/>
				<path d="M65.4,53.8l-2.3,2.3c-0.4,0.4-0.4,0.6,0,1l0.5,0.5c0.1-0.3,0.1-0.3,0.3-0.5l1-1c0.9-0.9,1.6-1.1,2.5-0.4l1,1
					c0.6,0.7,0.5,1.5-0.2,2.2l-1.3,1.3c-0.6,0.6-0.9,0.7-1.4,0.7c-0.5,0-1-0.3-1.5-0.8l-1.8-1.8c-0.5-0.5-0.6-0.6-0.7-0.8
					c-0.4-0.8-0.3-1.4,0.5-2.1l2.5-2.5L65.4,53.8z M67,58.1c0.3-0.3,0.3-0.5,0-0.7L66.6,57c-0.3-0.3-0.5-0.3-0.8,0l-0.9,0.9
					c-0.4,0.4-0.4,0.6-0.1,0.9l0.5,0.5c0.3,0.3,0.4,0.3,0.7,0L67,58.1z"/>
			</g>
			<g>
				<path d="M61.6,74.5l2.2-2.2c0.6-0.6,0.6-0.7,0.2-1.1l-0.7-0.7c0.1,0.5,0,0.5-0.4,1l-1.1,1.1c-0.7,0.7-1.3,0.7-1.9,0.1l-0.8-0.8
					c-0.5-0.5-0.7-0.8-0.7-1.2c0-0.4,0.3-0.9,0.6-1.2l1.5-1.5c0.9-0.9,1.6-0.8,2.7,0.3l1.9,1.9c0.7,0.7,0.8,0.9,0.8,1.4
					c0,0.4-0.2,0.8-0.7,1.3l-2.6,2.6L61.6,74.5z M60.5,71.3c0.3,0.3,0.4,0.3,0.7,0l1.1-1.1c0.2-0.3,0.2-0.3,0-0.6l-0.5-0.5
					c-0.3-0.3-0.4-0.3-0.8,0.1l-0.9,0.9c-0.3,0.3-0.3,0.5,0,0.8L60.5,71.3z"/>
				<path d="M67.1,63.1l-2.3,2.3c-0.4,0.4-0.4,0.6,0,1l0.5,0.5c0.1-0.3,0.1-0.3,0.3-0.5l1-1c0.9-0.9,1.6-1.1,2.5-0.4l1,1
					c0.6,0.7,0.5,1.5-0.2,2.2l-1.3,1.3c-0.6,0.6-0.9,0.7-1.4,0.7c-0.5,0-1-0.3-1.5-0.8l-1.8-1.8c-0.5-0.5-0.6-0.6-0.7-0.8
					c-0.4-0.8-0.3-1.4,0.5-2.1l2.5-2.5L67.1,63.1z M68.7,67.4c0.3-0.3,0.3-0.5,0-0.7l-0.5-0.5c-0.3-0.3-0.5-0.3-0.8,0l-0.9,0.9
					c-0.4,0.4-0.4,0.6-0.1,0.9l0.5,0.5c0.3,0.3,0.4,0.3,0.7,0L68.7,67.4z"/>
			</g>
			<g>
				<path d="M70.8,65.3l2.2-2.2c0.6-0.6,0.6-0.7,0.2-1.1l-0.7-0.7c0.1,0.5,0,0.5-0.4,1l-1.1,1.1c-0.7,0.7-1.3,0.7-1.9,0.1l-0.8-0.8
					c-0.5-0.5-0.7-0.8-0.7-1.2c0-0.4,0.3-0.9,0.6-1.2l1.5-1.5c0.9-0.9,1.6-0.8,2.7,0.3l1.9,1.9c0.7,0.7,0.8,0.9,0.8,1.4
					c0,0.4-0.2,0.8-0.7,1.3l-2.6,2.6L70.8,65.3z M69.6,62.1c0.3,0.3,0.4,0.3,0.7,0l1.1-1.1c0.2-0.3,0.2-0.3,0-0.6L70.9,60
					c-0.3-0.3-0.4-0.3-0.8,0.1l-0.9,0.9c-0.3,0.3-0.3,0.5,0,0.8L69.6,62.1z"/>
				<path d="M76.2,53.9L74,56.2c-0.4,0.4-0.4,0.6,0,1l0.5,0.5c0.1-0.3,0.1-0.3,0.3-0.5l1-1c0.9-0.9,1.6-1.1,2.5-0.4l1,1
					c0.6,0.7,0.5,1.5-0.2,2.2l-1.3,1.3c-0.6,0.6-0.9,0.7-1.4,0.7c-0.5,0-1-0.3-1.5-0.8L73,58.4c-0.5-0.5-0.6-0.6-0.7-0.8
					c-0.4-0.8-0.3-1.4,0.5-2.1l2.5-2.5L76.2,53.9z M77.8,58.2c0.3-0.3,0.3-0.5,0-0.7l-0.5-0.5c-0.3-0.3-0.5-0.3-0.8,0L75.8,58
					c-0.4,0.4-0.4,0.6-0.1,0.9l0.5,0.5c0.3,0.3,0.4,0.3,0.7,0L77.8,58.2z"/>
			</g>
			<g>
				<path d="M79.9,55.3l2.2-2.2c0.6-0.6,0.6-0.7,0.2-1.1l-0.7-0.7c0.1,0.5,0,0.5-0.4,1l-1.1,1.1c-0.7,0.7-1.3,0.7-1.9,0.1l-0.8-0.8
					c-0.5-0.5-0.7-0.8-0.7-1.2c0-0.4,0.3-0.9,0.6-1.2l1.5-1.5c0.9-0.9,1.6-0.8,2.7,0.3l1.9,1.9c0.7,0.7,0.8,0.9,0.8,1.4
					c0,0.4-0.2,0.8-0.7,1.3l-2.6,2.6L79.9,55.3z M78.8,52.1c0.3,0.3,0.4,0.3,0.7,0l1.1-1.1c0.2-0.3,0.2-0.3,0-0.6l-0.5-0.5
					c-0.3-0.3-0.4-0.3-0.8,0.1l-0.9,0.9c-0.3,0.3-0.3,0.5,0,0.8L78.8,52.1z"/>
				<path d="M85.4,43.9l-2.3,2.3c-0.4,0.4-0.4,0.6,0,1l0.5,0.5c0.1-0.3,0.1-0.3,0.3-0.5l1-1c0.9-0.9,1.6-1.1,2.5-0.4l1,1
					c0.6,0.7,0.5,1.5-0.2,2.2l-1.3,1.3c-0.6,0.6-0.9,0.7-1.4,0.7c-0.5,0-1-0.3-1.5-0.8l-1.8-1.8c-0.5-0.5-0.6-0.6-0.7-0.8
					c-0.4-0.8-0.3-1.4,0.5-2.1l2.5-2.5L85.4,43.9z M87,48.2c0.3-0.3,0.3-0.5,0-0.7L86.6,47c-0.3-0.3-0.5-0.3-0.8,0L84.9,48
					c-0.4,0.4-0.4,0.6-0.1,0.9l0.5,0.5c0.3,0.3,0.4,0.3,0.7,0L87,48.2z"/>
			</g>
			<g>
				<path d="M30,60.4l2.2-2.2c0.6-0.6,0.6-0.7,0.2-1.1l-0.7-0.7c0.1,0.5,0,0.5-0.4,1l-1.1,1.1c-0.7,0.7-1.3,0.7-1.9,0.1l-0.8-0.8
					c-0.5-0.5-0.7-0.8-0.7-1.2c0-0.4,0.3-0.9,0.6-1.2l1.5-1.5c0.9-0.9,1.6-0.8,2.7,0.3l1.9,1.9c0.7,0.7,0.8,0.9,0.8,1.4
					c0,0.4-0.2,0.8-0.7,1.3l-2.6,2.6L30,60.4z M28.9,57.2c0.3,0.3,0.4,0.3,0.7,0l1.1-1.1c0.2-0.3,0.2-0.3,0-0.6L30.2,55
					c-0.3-0.3-0.4-0.3-0.8,0.1L28.5,56c-0.3,0.3-0.3,0.5,0,0.8L28.9,57.2z"/>
				<path d="M35.5,49l-2.3,2.3c-0.4,0.4-0.4,0.6,0,1l0.5,0.5c0.1-0.3,0.1-0.3,0.3-0.5l1-1c0.9-0.9,1.6-1.1,2.5-0.4l1,1
					c0.6,0.7,0.5,1.5-0.2,2.2L37,55.3c-0.6,0.6-0.9,0.7-1.4,0.7c-0.5,0-1-0.3-1.5-0.8l-1.8-1.8c-0.5-0.5-0.6-0.6-0.7-0.8
					c-0.4-0.8-0.3-1.4,0.5-2.1l2.5-2.5L35.5,49z M37.1,53.3c0.3-0.3,0.3-0.5,0-0.7l-0.5-0.5c-0.3-0.3-0.5-0.3-0.8,0L35,53
					c-0.4,0.4-0.4,0.6-0.1,0.9l0.5,0.5c0.3,0.3,0.4,0.3,0.7,0L37.1,53.3z"/>
			</g>
			<g>
				<path d="M20.7,69.7l2.2-2.2c0.6-0.6,0.6-0.7,0.2-1.1l-0.7-0.7c0.1,0.5,0,0.5-0.4,1l-1.1,1.1c-0.7,0.7-1.3,0.7-1.9,0.1L18,67.1
					c-0.5-0.5-0.7-0.8-0.7-1.2c0-0.4,0.3-0.9,0.6-1.2l1.5-1.5c0.9-0.9,1.6-0.8,2.7,0.3l1.9,1.9c0.7,0.7,0.8,0.9,0.8,1.4
					c0,0.4-0.2,0.8-0.7,1.3l-2.6,2.6L20.7,69.7z M19.6,66.5c0.3,0.3,0.4,0.3,0.7,0l1.1-1.1c0.2-0.3,0.2-0.3,0-0.6l-0.5-0.5
					c-0.3-0.3-0.4-0.3-0.8,0.1l-0.9,0.9c-0.3,0.3-0.3,0.5,0,0.8L19.6,66.5z"/>
				<path d="M26.2,58.3l-2.3,2.3c-0.4,0.4-0.4,0.6,0,1l0.5,0.5c0.1-0.3,0.1-0.3,0.3-0.5l1-1c0.9-0.9,1.6-1.1,2.5-0.4l1,1
					c0.6,0.7,0.5,1.5-0.2,2.2l-1.3,1.3c-0.6,0.6-0.9,0.7-1.4,0.7c-0.5,0-1-0.3-1.5-0.8L23,62.7c-0.5-0.5-0.6-0.6-0.7-0.8
					c-0.4-0.8-0.3-1.4,0.5-2.1l2.5-2.5L26.2,58.3z M27.8,62.6c0.3-0.3,0.3-0.5,0-0.7l-0.5-0.5c-0.3-0.3-0.5-0.3-0.8,0l-0.9,0.9
					c-0.4,0.4-0.4,0.6-0.1,0.9l0.5,0.5c0.3,0.3,0.4,0.3,0.7,0L27.8,62.6z"/>
			</g>
		</g>
	</g>
</g>
</svg>
