<?xml version="1.0" encoding="utf-8"?>
<!-- Generator: Adobe Illustrator 21.0.2, SVG Export Plug-In . SVG Version: 6.00 Build 0)  -->
<svg version="1.1" xmlns="http://www.w3.org/2000/svg" xmlns:xlink="http://www.w3.org/1999/xlink" x="0px" y="0px"
	 viewBox="0 0 100 100" style="enable-background:new 0 0 100 100;" xml:space="preserve">
<style type="text/css">
	.st0{display:none;}
	.st1{display:inline;}
	.st2{fill:#555555;}
</style>
<g id="レイヤー_1" class="st0">
	<g class="st1">
		<path class="st2" d="M50.5,56.7h-0.8c-0.5,0-1,0.4-1,1v0.8c0,0.5,0.4,1,1,1h0.8c0.5,0,1-0.4,1-1v-0.8
			C51.5,57.1,51.1,56.7,50.5,56.7z M50.1,58.6c-0.3,0-0.5-0.2-0.5-0.5c0-0.3,0.2-0.5,0.5-0.5c0.3,0,0.5,0.2,0.5,0.5
			C50.7,58.3,50.4,58.6,50.1,58.6z"/>
		<path class="st2" d="M10,61.9h34.6c-0.2,0.4-0.4,0.8-0.4,1.3v3.7c0,0.3,0.1,0.7,0.2,0.9H34.2c-1.4,0-2.6,1.2-2.6,2.6
			c0,0.4,0.3,0.7,0.7,0.7H68c0.4,0,0.7-0.3,0.7-0.7c0-1.4-1.2-2.6-2.6-2.6H55.8c0.1-0.3,0.2-0.6,0.2-0.9v-3.7c0-0.5-0.1-0.9-0.4-1.3
			h34.6c1,0,1.9-0.8,1.9-1.9V8c0-1-0.8-1.9-1.9-1.9H10C9,6.2,8.1,7,8.1,8v52C8.1,61.1,9,61.9,10,61.9z M50.1,60.6
			c-1.4,0-2.5-1.1-2.5-2.5c0-1.4,1.1-2.5,2.5-2.5s2.5,1.1,2.5,2.5C52.6,59.4,51.5,60.6,50.1,60.6z M13.6,13c0-0.8,0.6-1.4,1.4-1.4
			h70.3c0.8,0,1.4,0.6,1.4,1.4v40.2c0,0.8-0.6,1.4-1.4,1.4H14.9c-0.8,0-1.4-0.6-1.4-1.4V13z"/>
		<path class="st2" d="M90.4,79c-0.3-0.5-1.5-1-2.6-1H11.3c-1.1,0-2.2,0.4-2.5,1L1.3,92c-0.3,0.5,0.5,1,1.8,1h94.1
			c1.3,0,2.1-0.4,1.7-1L90.4,79z M6.5,91.1l5.8-11.1h74.9l6.6,11.1H6.5z"/>
		<path class="st2" d="M51.8,82.6h2.1c0.5,0,0.9-0.2,0.9-0.4l-0.1-1c0-0.2-0.4-0.4-0.9-0.4h-2.1c-0.5,0-0.9,0.2-0.9,0.4l0.1,1
			C50.9,82.4,51.3,82.6,51.8,82.6z"/>
		<path class="st2" d="M58.1,82.6h2.1c0.5,0,0.9-0.2,0.8-0.4l-0.2-1c0-0.2-0.5-0.4-1-0.4h-2.1c-0.5,0-0.9,0.2-0.8,0.4l0.1,1
			C57.1,82.4,57.6,82.6,58.1,82.6z"/>
		<path class="st2" d="M64.3,82.6h2.1c0.5,0,0.9-0.2,0.8-0.4l-0.3-1c-0.1-0.2-0.5-0.4-1-0.4h-2.1c-0.5,0-0.8,0.2-0.8,0.4l0.2,1
			C63.4,82.4,63.8,82.6,64.3,82.6z"/>
		<path class="st2" d="M72.7,82.6c0.5,0,0.8-0.2,0.7-0.4l-0.4-1c-0.1-0.2-0.6-0.4-1-0.4h-2.1c-0.5,0-0.8,0.2-0.7,0.4l0.3,1
			c0.1,0.2,0.5,0.4,1,0.4H72.7z"/>
		<path class="st2" d="M76.8,82.6h2.1c0.5,0,0.8-0.2,0.7-0.4l-0.5-1c-0.1-0.2-0.6-0.4-1.1-0.4H76c-0.5,0-0.8,0.2-0.7,0.4l0.4,1
			C75.8,82.4,76.3,82.6,76.8,82.6z"/>
		<path class="st2" d="M81.9,82.2c0.1,0.2,0.6,0.4,1.1,0.4h2.1c0.5,0,0.8-0.2,0.7-0.4l-0.5-1c-0.1-0.2-0.6-0.4-1.1-0.4h-2.1
			c-0.5,0-0.8,0.2-0.7,0.4L81.9,82.2z"/>
		<path class="st2" d="M51.9,83.2c-0.5,0-0.9,0.2-0.9,0.4l0.1,1c0,0.2,0.4,0.4,1,0.4h2.2c0.5,0,0.9-0.2,0.9-0.4l-0.1-1
			c0-0.2-0.5-0.4-1-0.4H51.9z"/>
		<path class="st2" d="M65.3,83.2h-0.9h-6.3c-0.5,0-0.9,0.2-0.9,0.4l0.1,1c0,0.2,0.5,0.4,1,0.4h6.5h0.9h1.3c0.5,0,0.9-0.2,0.8-0.4
			l-0.3-1c-0.1-0.2-0.5-0.4-1-0.4H65.3z"/>
		<path class="st2" d="M73.5,85c0.5,0,0.9-0.2,0.8-0.4l-0.4-1c-0.1-0.2-0.6-0.4-1.1-0.4h-2.1c-0.5,0-0.9,0.2-0.8,0.4l0.3,1
			c0.1,0.2,0.6,0.4,1.1,0.4H73.5z"/>
		<path class="st2" d="M80,85c0.5,0,0.9-0.2,0.7-0.4l-0.5-1c-0.1-0.2-0.6-0.4-1.1-0.4h-2.1c-0.5,0-0.8,0.2-0.7,0.4l0.4,1
			c0.1,0.2,0.6,0.4,1.1,0.4H80z"/>
		<path class="st2" d="M85.5,83.2h-2.1c-0.5,0-0.8,0.2-0.7,0.4l0.5,1c0.1,0.2,0.6,0.4,1.2,0.4h2.2c0.5,0,0.8-0.2,0.7-0.4l-0.5-1
			C86.5,83.4,86,83.2,85.5,83.2z"/>
		<path class="st2" d="M52,85.6c-0.5,0-0.9,0.2-0.9,0.4l0.1,1c0,0.2,0.5,0.4,1,0.4h2.3c0.5,0,0.9-0.2,0.9-0.4l-0.1-1
			c0-0.2-0.5-0.4-1-0.4H52z"/>
		<path class="st2" d="M60.7,85.6h-2.2c-0.5,0-0.9,0.2-0.9,0.4l0.1,1c0,0.2,0.5,0.4,1,0.4h2.3c0.5,0,0.9-0.2,0.9-0.4l-0.2-1
			C61.7,85.8,61.2,85.6,60.7,85.6z"/>
		<path class="st2" d="M65,85.6c-0.5,0-0.9,0.2-0.8,0.4l0.2,1c0.1,0.2,0.5,0.4,1.1,0.4h2.3c0.5,0,0.9-0.2,0.8-0.4l-0.3-1
			c-0.1-0.2-0.5-0.4-1.1-0.4H65z"/>
		<path class="st2" d="M74.4,87.5c0.5,0,0.9-0.2,0.8-0.4l-0.4-1c-0.1-0.2-0.6-0.4-1.1-0.4h-2.2c-0.5,0-0.9,0.2-0.8,0.4l0.3,1
			c0.1,0.2,0.6,0.4,1.1,0.4H74.4z"/>
		<path class="st2" d="M81.1,87.5c0.5,0,0.9-0.2,0.8-0.4l-0.5-1c-0.1-0.2-0.6-0.4-1.1-0.4h-2.2c-0.5,0-0.9,0.2-0.8,0.4l0.4,1
			c0.1,0.2,0.6,0.4,1.1,0.4H81.1z"/>
		<path class="st2" d="M84.6,85.6c-0.5,0-0.9,0.2-0.7,0.4l0.5,1c0.1,0.2,0.6,0.4,1.2,0.4h2.3c0.5,0,0.9-0.2,0.7-0.4l-0.5-1
			c-0.1-0.2-0.7-0.4-1.2-0.4H84.6z"/>
		<path class="st2" d="M68.6,88.5C68.5,88.2,68,88,67.5,88H32c-0.5,0-1,0.2-1.1,0.4l-0.2,1c0,0.2,0.4,0.4,0.9,0.4H68
			c0.6,0,0.9-0.2,0.9-0.4L68.6,88.5z"/>
		<path class="st2" d="M75.8,88.5c-0.1-0.2-0.6-0.4-1.1-0.4h-2.3c-0.5,0-0.9,0.2-0.8,0.4l0.3,1c0.1,0.2,0.6,0.4,1.1,0.4h2.3
			c0.6,0,0.9-0.2,0.8-0.4L75.8,88.5z"/>
		<path class="st2" d="M82.5,88.5c-0.1-0.2-0.6-0.4-1.2-0.4h-2.3c-0.5,0-0.9,0.2-0.8,0.4l0.4,1c0.1,0.2,0.6,0.4,1.2,0.4h2.3
			c0.6,0,0.9-0.2,0.8-0.4L82.5,88.5z"/>
		<path class="st2" d="M85.8,88c-0.5,0-0.9,0.2-0.8,0.4l0.5,1c0.1,0.2,0.7,0.4,1.2,0.4h2.3c0.6,0,0.9-0.2,0.8-0.4l-0.5-1
			c-0.1-0.2-0.7-0.4-1.2-0.4H85.8z"/>
	</g>
</g>
<g id="レイヤー_2">
	<g>
		<path class="st2" d="M99.2,20.7c-0.5-0.6-1.3-0.9-2.1-0.9l-73.4-0.1l-1.1-6.1c-0.2-1-0.9-1.8-1.8-2.2L4,5.3C2.5,4.8,0.9,5.5,0.3,7
			c-0.5,1.5,0.2,3.1,1.7,3.7l15.3,5.6L28.1,75c0.3,1.4,1.4,2.3,2.8,2.3h62.2c1.6,0,2.9-1.3,2.9-2.9c0-1.6-1.3-2.9-2.9-2.9H33.3
			l-0.9-4.9l63.4-8.5c1.4-0.2,2.4-1.3,2.5-2.7l1.7-32.7C100,22,99.8,21.3,99.2,20.7z M93.5,36.8L85,37.2l0.2-11.7l8.9,0L93.5,36.8z
			 M57.8,57.5l-2-15.8l11.7-0.6l0.8,15L57.8,57.5z M44.4,59.3l-3.1-16.8L53,41.9l2,16L44.4,59.3z M51,25.4L52.6,39l-11.9,0.6
			l-2.6-14.2L51,25.4z M53.9,25.5l12.8,0l0.7,12.7l-11.9,0.6L53.9,25.5z M70.4,40.9l11.7-0.6l-0.3,14l-10.6,1.4L70.4,40.9z M70.3,38
			l-0.7-12.6l12.8,0l-0.2,11.9L70.3,38z M35.2,25.4l2.7,14.4l-10.3,0.6l-2.8-15L35.2,25.4z M28.1,43.2l10.4-0.6l3.2,17L31.3,61
			L28.1,43.2z M84.7,53.9L85,40.1l8.4-0.5l-0.7,13.1L84.7,53.9z"/>
		<path class="st2" d="M45,79.2c-3.5,0-6.4,2.9-6.4,6.4c0,3.5,2.9,6.4,6.4,6.4c3.5,0,6.4-2.9,6.4-6.4C51.3,82.1,48.5,79.2,45,79.2z
			 M45,89.1c-1.9,0-3.5-1.6-3.5-3.5c0-1.9,1.6-3.5,3.5-3.5c1.9,0,3.5,1.6,3.5,3.5C48.5,87.6,46.9,89.1,45,89.1z"/>
		<path class="st2" d="M83.6,79.2c-3.5,0-6.4,2.9-6.4,6.4c0,3.5,2.9,6.4,6.4,6.4c3.5,0,6.4-2.9,6.4-6.4
			C89.9,82.1,87.1,79.2,83.6,79.2z M83.6,89.1c-1.9,0-3.5-1.6-3.5-3.5c0-1.9,1.6-3.5,3.5-3.5c1.9,0,3.5,1.6,3.5,3.5
			C87.1,87.6,85.5,89.1,83.6,89.1z"/>
	</g>
</g>
</svg>
