<?xml version="1.0" encoding="utf-8"?>
<!-- Generator: Adobe Illustrator 21.0.2, SVG Export Plug-In . SVG Version: 6.00 Build 0)  -->
<svg version="1.1" xmlns="http://www.w3.org/2000/svg" xmlns:xlink="http://www.w3.org/1999/xlink" x="0px" y="0px"
	 viewBox="0 0 100 100" style="enable-background:new 0 0 100 100;" xml:space="preserve">
<style type="text/css">
	.st0{display:none;}
	.st1{display:inline;}
	.st2{fill:#555555;}
	.st3{fill:#777777;}
	.st4{display:inline;fill:#555555;}
</style>
<g id="レイヤー_1" class="st0">
	<g class="st1">
		<path class="st2" d="M50.5,56.7h-0.8c-0.5,0-1,0.4-1,1v0.8c0,0.5,0.4,1,1,1h0.8c0.5,0,1-0.4,1-1v-0.8
			C51.5,57.1,51.1,56.7,50.5,56.7z M50.1,58.6c-0.3,0-0.5-0.2-0.5-0.5c0-0.3,0.2-0.5,0.5-0.5c0.3,0,0.5,0.2,0.5,0.5
			C50.7,58.3,50.4,58.6,50.1,58.6z"/>
		<path class="st2" d="M10,61.9h34.6c-0.2,0.4-0.4,0.8-0.4,1.3v3.7c0,0.3,0.1,0.7,0.2,0.9H34.2c-1.4,0-2.6,1.2-2.6,2.6
			c0,0.4,0.3,0.7,0.7,0.7H68c0.4,0,0.7-0.3,0.7-0.7c0-1.4-1.2-2.6-2.6-2.6H55.8c0.1-0.3,0.2-0.6,0.2-0.9v-3.7c0-0.5-0.1-0.9-0.4-1.3
			h34.6c1,0,1.9-0.8,1.9-1.9V8c0-1-0.8-1.9-1.9-1.9H10C9,6.2,8.1,7,8.1,8v52C8.1,61.1,9,61.9,10,61.9z M50.1,60.6
			c-1.4,0-2.5-1.1-2.5-2.5c0-1.4,1.1-2.5,2.5-2.5s2.5,1.1,2.5,2.5C52.6,59.4,51.5,60.6,50.1,60.6z M13.6,13c0-0.8,0.6-1.4,1.4-1.4
			h70.3c0.8,0,1.4,0.6,1.4,1.4v40.2c0,0.8-0.6,1.4-1.4,1.4H14.9c-0.8,0-1.4-0.6-1.4-1.4V13z"/>
		<path class="st2" d="M90.4,79c-0.3-0.5-1.5-1-2.6-1H11.3c-1.1,0-2.2,0.4-2.5,1L1.3,92c-0.3,0.5,0.5,1,1.8,1h94.1
			c1.3,0,2.1-0.4,1.7-1L90.4,79z M6.5,91.1l5.8-11.1h74.9l6.6,11.1H6.5z"/>
		<path class="st2" d="M51.8,82.6h2.1c0.5,0,0.9-0.2,0.9-0.4l-0.1-1c0-0.2-0.4-0.4-0.9-0.4h-2.1c-0.5,0-0.9,0.2-0.9,0.4l0.1,1
			C50.9,82.4,51.3,82.6,51.8,82.6z"/>
		<path class="st2" d="M58.1,82.6h2.1c0.5,0,0.9-0.2,0.8-0.4l-0.2-1c0-0.2-0.5-0.4-1-0.4h-2.1c-0.5,0-0.9,0.2-0.8,0.4l0.1,1
			C57.1,82.4,57.6,82.6,58.1,82.6z"/>
		<path class="st2" d="M64.3,82.6h2.1c0.5,0,0.9-0.2,0.8-0.4l-0.3-1c-0.1-0.2-0.5-0.4-1-0.4h-2.1c-0.5,0-0.8,0.2-0.8,0.4l0.2,1
			C63.4,82.4,63.8,82.6,64.3,82.6z"/>
		<path class="st2" d="M72.7,82.6c0.5,0,0.8-0.2,0.7-0.4l-0.4-1c-0.1-0.2-0.6-0.4-1-0.4h-2.1c-0.5,0-0.8,0.2-0.7,0.4l0.3,1
			c0.1,0.2,0.5,0.4,1,0.4H72.7z"/>
		<path class="st2" d="M76.8,82.6h2.1c0.5,0,0.8-0.2,0.7-0.4l-0.5-1c-0.1-0.2-0.6-0.4-1.1-0.4H76c-0.5,0-0.8,0.2-0.7,0.4l0.4,1
			C75.8,82.4,76.3,82.6,76.8,82.6z"/>
		<path class="st2" d="M81.9,82.2c0.1,0.2,0.6,0.4,1.1,0.4h2.1c0.5,0,0.8-0.2,0.7-0.4l-0.5-1c-0.1-0.2-0.6-0.4-1.1-0.4h-2.1
			c-0.5,0-0.8,0.2-0.7,0.4L81.9,82.2z"/>
		<path class="st2" d="M51.9,83.2c-0.5,0-0.9,0.2-0.9,0.4l0.1,1c0,0.2,0.4,0.4,1,0.4h2.2c0.5,0,0.9-0.2,0.9-0.4l-0.1-1
			c0-0.2-0.5-0.4-1-0.4H51.9z"/>
		<path class="st2" d="M65.3,83.2h-0.9h-6.3c-0.5,0-0.9,0.2-0.9,0.4l0.1,1c0,0.2,0.5,0.4,1,0.4h6.5h0.9h1.3c0.5,0,0.9-0.2,0.8-0.4
			l-0.3-1c-0.1-0.2-0.5-0.4-1-0.4H65.3z"/>
		<path class="st2" d="M73.5,85c0.5,0,0.9-0.2,0.8-0.4l-0.4-1c-0.1-0.2-0.6-0.4-1.1-0.4h-2.1c-0.5,0-0.9,0.2-0.8,0.4l0.3,1
			c0.1,0.2,0.6,0.4,1.1,0.4H73.5z"/>
		<path class="st2" d="M80,85c0.5,0,0.9-0.2,0.7-0.4l-0.5-1c-0.1-0.2-0.6-0.4-1.1-0.4h-2.1c-0.5,0-0.8,0.2-0.7,0.4l0.4,1
			c0.1,0.2,0.6,0.4,1.1,0.4H80z"/>
		<path class="st2" d="M85.5,83.2h-2.1c-0.5,0-0.8,0.2-0.7,0.4l0.5,1c0.1,0.2,0.6,0.4,1.2,0.4h2.2c0.5,0,0.8-0.2,0.7-0.4l-0.5-1
			C86.5,83.4,86,83.2,85.5,83.2z"/>
		<path class="st2" d="M52,85.6c-0.5,0-0.9,0.2-0.9,0.4l0.1,1c0,0.2,0.5,0.4,1,0.4h2.3c0.5,0,0.9-0.2,0.9-0.4l-0.1-1
			c0-0.2-0.5-0.4-1-0.4H52z"/>
		<path class="st2" d="M60.7,85.6h-2.2c-0.5,0-0.9,0.2-0.9,0.4l0.1,1c0,0.2,0.5,0.4,1,0.4h2.3c0.5,0,0.9-0.2,0.9-0.4l-0.2-1
			C61.7,85.8,61.2,85.6,60.7,85.6z"/>
		<path class="st2" d="M65,85.6c-0.5,0-0.9,0.2-0.8,0.4l0.2,1c0.1,0.2,0.5,0.4,1.1,0.4h2.3c0.5,0,0.9-0.2,0.8-0.4l-0.3-1
			c-0.1-0.2-0.5-0.4-1.1-0.4H65z"/>
		<path class="st2" d="M74.4,87.5c0.5,0,0.9-0.2,0.8-0.4l-0.4-1c-0.1-0.2-0.6-0.4-1.1-0.4h-2.2c-0.5,0-0.9,0.2-0.8,0.4l0.3,1
			c0.1,0.2,0.6,0.4,1.1,0.4H74.4z"/>
		<path class="st2" d="M81.1,87.5c0.5,0,0.9-0.2,0.8-0.4l-0.5-1c-0.1-0.2-0.6-0.4-1.1-0.4h-2.2c-0.5,0-0.9,0.2-0.8,0.4l0.4,1
			c0.1,0.2,0.6,0.4,1.1,0.4H81.1z"/>
		<path class="st2" d="M84.6,85.6c-0.5,0-0.9,0.2-0.7,0.4l0.5,1c0.1,0.2,0.6,0.4,1.2,0.4h2.3c0.5,0,0.9-0.2,0.7-0.4l-0.5-1
			c-0.1-0.2-0.7-0.4-1.2-0.4H84.6z"/>
		<path class="st2" d="M68.6,88.5C68.5,88.2,68,88,67.5,88H32c-0.5,0-1,0.2-1.1,0.4l-0.2,1c0,0.2,0.4,0.4,0.9,0.4H68
			c0.6,0,0.9-0.2,0.9-0.4L68.6,88.5z"/>
		<path class="st2" d="M75.8,88.5c-0.1-0.2-0.6-0.4-1.1-0.4h-2.3c-0.5,0-0.9,0.2-0.8,0.4l0.3,1c0.1,0.2,0.6,0.4,1.1,0.4h2.3
			c0.6,0,0.9-0.2,0.8-0.4L75.8,88.5z"/>
		<path class="st2" d="M82.5,88.5c-0.1-0.2-0.6-0.4-1.2-0.4h-2.3c-0.5,0-0.9,0.2-0.8,0.4l0.4,1c0.1,0.2,0.6,0.4,1.2,0.4h2.3
			c0.6,0,0.9-0.2,0.8-0.4L82.5,88.5z"/>
		<path class="st2" d="M85.8,88c-0.5,0-0.9,0.2-0.8,0.4l0.5,1c0.1,0.2,0.7,0.4,1.2,0.4h2.3c0.6,0,0.9-0.2,0.8-0.4l-0.5-1
			c-0.1-0.2-0.7-0.4-1.2-0.4H85.8z"/>
	</g>
</g>
<g id="レイヤー_2" class="st0">
	<g class="st1">
		<path class="st3" d="M99.2,20.7c-0.5-0.6-1.3-0.9-2.1-0.9l-73.4-0.1l-1.1-6.1c-0.2-1-0.9-1.8-1.8-2.2L4,5.3C2.5,4.8,0.9,5.5,0.3,7
			c-0.5,1.5,0.2,3.1,1.7,3.7l15.3,5.6L28.1,75c0.3,1.4,1.4,2.3,2.8,2.3h62.2c1.6,0,2.9-1.3,2.9-2.9c0-1.6-1.3-2.9-2.9-2.9H33.3
			l-0.9-4.9l63.4-8.5c1.4-0.2,2.4-1.3,2.5-2.7l1.7-32.7C100,22,99.8,21.3,99.2,20.7z M93.5,36.8L85,37.2l0.2-11.7l8.9,0L93.5,36.8z
			 M57.8,57.5l-2-15.8l11.7-0.6l0.8,15L57.8,57.5z M44.4,59.3l-3.1-16.8L53,41.9l2,16L44.4,59.3z M51,25.4L52.6,39l-11.9,0.6
			l-2.6-14.2L51,25.4z M53.9,25.5l12.8,0l0.7,12.7l-11.9,0.6L53.9,25.5z M70.4,40.9l11.7-0.6l-0.3,14l-10.6,1.4L70.4,40.9z M70.3,38
			l-0.7-12.6l12.8,0l-0.2,11.9L70.3,38z M35.2,25.4l2.7,14.4l-10.3,0.6l-2.8-15L35.2,25.4z M28.1,43.2l10.4-0.6l3.2,17L31.3,61
			L28.1,43.2z M84.7,53.9L85,40.1l8.4-0.5l-0.7,13.1L84.7,53.9z"/>
		<path class="st3" d="M45,79.2c-3.5,0-6.4,2.9-6.4,6.4c0,3.5,2.9,6.4,6.4,6.4c3.5,0,6.4-2.9,6.4-6.4C51.3,82.1,48.5,79.2,45,79.2z
			 M45,89.1c-1.9,0-3.5-1.6-3.5-3.5c0-1.9,1.6-3.5,3.5-3.5c1.9,0,3.5,1.6,3.5,3.5C48.5,87.6,46.9,89.1,45,89.1z"/>
		<path class="st3" d="M83.6,79.2c-3.5,0-6.4,2.9-6.4,6.4c0,3.5,2.9,6.4,6.4,6.4c3.5,0,6.4-2.9,6.4-6.4
			C89.9,82.1,87.1,79.2,83.6,79.2z M83.6,89.1c-1.9,0-3.5-1.6-3.5-3.5c0-1.9,1.6-3.5,3.5-3.5c1.9,0,3.5,1.6,3.5,3.5
			C87.1,87.6,85.5,89.1,83.6,89.1z"/>
	</g>
</g>
<g id="レイヤー_3" class="st0">
	<path class="st4" d="M93.8,10.3H69.5H45.2c-3.4,0-6.2,2.8-6.2,6.2v68c0,3.4,2.8,6.2,6.2,6.2h24.3h24.3c3.4,0,6.2-2.8,6.2-6.2v-68
		C100,13,97.2,10.3,93.8,10.3z M85.3,12.3c0.6,0,1.2,0.5,1.2,1.2c0,0.6-0.5,1.2-1.2,1.2c-0.6,0-1.2-0.5-1.2-1.2
		C84.1,12.9,84.6,12.3,85.3,12.3z M69.5,89.3c-1.9,0-3.4-1.5-3.4-3.4c0-1.9,1.5-3.4,3.4-3.4c1.9,0,3.4,1.5,3.4,3.4
		C72.9,87.8,71.4,89.3,69.5,89.3z M97.3,80.4H69.4H41.7V16.9h27.7h27.9V80.4z"/>
	<g class="st1">
		<circle class="st2" cx="16.6" cy="85.1" r="2.9"/>
		<path class="st2" d="M28.7,28.9H16.6H4.4c-2.4,0-4.4,2-4.4,4.4V86c0,2.5,2,4.4,4.4,4.4h12.1h12.1c2.5,0,4.4-2,4.4-4.4V33.4
			C33.1,30.9,31.1,28.9,28.7,28.9z M9.8,31.4h13.5v1.1H9.8V31.4z M16.6,88.7c-2,0-3.7-1.6-3.7-3.7c0-2,1.6-3.7,3.7-3.7
			c2,0,3.7,1.6,3.7,3.7C20.2,87.1,18.6,88.7,16.6,88.7z M31.5,79.2H16.7H1.6V35.6h15.1h14.8V79.2z"/>
	</g>
	<g class="st1">
		<path class="st2" d="M11,44c0,0.5-0.4,1-1,1H4c-0.5,0-1-0.5-1-1v-6c0-0.5,0.5-1,1-1h6c0.6,0,1,0.5,1,1V44z"/>
	</g>
	<g class="st1">
		<path class="st2" d="M55,29c0,0.5-0.5,1-1,1h-9c-0.5,0-1-0.5-1-1v-9c0-0.5,0.5-1,1-1h9c0.5,0,1,0.5,1,1V29z"/>
	</g>
</g>
<g id="レイヤー_4" class="st0">
	<path class="st4" d="M70.4,75h-4V12.4c0-1.4-1.2-2.6-2.6-2.6H2.6C1.2,9.8,0,10.9,0,12.4v70c0,0,0,0,0,0c0,5,4.1,9,9,9c0,0,0,0,0,0
		h55.6c4.6,0,8.4-4.1,8.4-9v-4.8C73,76.1,71.8,75,70.4,75z M12.3,77.6v4.8c0,2.1-1.5,3.9-3.3,3.9c-2.1,0-3.9-1.7-3.9-3.9V14.9h56.2
		V75H14.9C13.5,75,12.3,76.1,12.3,77.6z M67.9,82.3c0,2.1-1.5,3.9-3.3,3.9h-48c0.5-1.2,0.8-2.5,0.8-3.9v-2.2h46.4c0,0,0,0,0,0
		c0,0,0,0,0,0h3.9V82.3z"/>
	<g class="st1">
		<g>
			<rect x="90" y="8.7" transform="matrix(0.7071 -0.7071 0.7071 0.7071 15.8685 69.9519)" class="st2" width="4.8" height="14.3"/>
			<path class="st2" d="M57.9,48.6l15.3-15.3c-1.1-1.8-0.8-4.2,0.7-5.8c1.9-1.9,4.9-1.9,6.7,0c1.9,1.9,1.9,4.9,0,6.7
				c-1.6,1.6-4,1.8-5.8,0.7L59.6,50.3l1.7,1.7l29.4-10.9l1.7-15.1L82.3,15.8l-15.1,1.7L56.2,47L57.9,48.6z"/>
		</g>
		<polygon class="st2" points="61.2,52 55.8,54 59.6,50.2 		"/>
		<polygon class="st2" points="56.2,46.9 54.2,52.4 57.9,48.6 		"/>
	</g>
</g>
<g id="レイヤー_5">
	<g>
		<path class="st2" d="M100,40C100,40,100,40,100,40C100,39.9,100,39.9,100,40c0-0.1,0-0.2,0-0.2c0,0,0,0,0-0.1c0,0,0-0.1,0-0.1
			c0,0,0-0.1,0-0.1c0,0,0,0,0-0.1c0,0,0-0.1,0-0.1c0,0,0,0,0,0l-9.5-26.2c0,0,0,0,0,0c0,0,0-0.1,0-0.1c0,0,0,0,0-0.1c0,0,0,0,0-0.1
			c0,0,0,0,0-0.1c0,0,0,0,0-0.1c0,0,0,0-0.1-0.1c0,0,0,0,0,0c0,0,0,0-0.1-0.1c0,0,0,0,0,0c0,0,0,0-0.1-0.1c0,0,0,0-0.1,0
			c0,0,0,0-0.1,0c0,0,0,0-0.1,0c0,0,0,0-0.1,0c0,0-0.1,0-0.1,0c0,0,0,0-0.1,0c0,0-0.1,0-0.1,0c0,0,0,0-0.1,0c0,0-0.1,0-0.1,0
			c0,0,0,0-0.1,0c0,0,0,0-0.1,0c0,0-0.1,0-0.1,0c0,0,0,0-0.1,0c0,0-0.1,0-0.1,0c0,0,0,0,0,0H76.3h0H50H23.7c0,0,0,0,0,0H11.1
			c0,0,0,0,0,0c0,0-0.1,0-0.1,0c0,0,0,0-0.1,0c0,0-0.1,0-0.1,0c0,0-0.1,0-0.1,0c0,0,0,0-0.1,0c0,0-0.1,0-0.1,0c0,0,0,0-0.1,0
			c0,0-0.1,0-0.1,0c0,0,0,0-0.1,0c0,0-0.1,0-0.1,0c0,0,0,0-0.1,0c0,0,0,0-0.1,0c0,0,0,0-0.1,0c0,0,0,0-0.1,0c0,0,0,0-0.1,0.1
			c0,0,0,0,0,0c0,0,0,0-0.1,0.1c0,0,0,0,0,0c0,0,0,0,0,0.1c0,0,0,0,0,0.1c0,0,0,0,0,0.1c0,0,0,0,0,0.1c0,0,0,0,0,0.1
			c0,0,0,0.1,0,0.1c0,0,0,0,0,0L0.1,39.4c0,0,0,0,0,0c0,0,0,0.1,0,0.1c0,0,0,0,0,0.1c0,0,0,0.1,0,0.1c0,0,0,0.1,0,0.1c0,0,0,0,0,0.1
			c0,0,0,0.1,0,0.1c0,0,0,0,0,0c0,0,0,0,0,0.1c0,0,0,0,0,0c0,5.3,4.3,9.5,9.6,9.5c3.4,0,6.4-1.8,8.1-4.4c1.7,2.6,4.7,4.4,8.1,4.4
			c3.4,0,6.4-1.8,8.1-4.4c1.7,2.6,4.7,4.4,8.1,4.4c3.4,0,6.4-1.8,8.1-4.4c1.7,2.6,4.7,4.4,8.1,4.4c3.4,0,6.4-1.8,8.1-4.4
			c1.7,2.6,4.7,4.4,8.1,4.4c3.4,0,6.4-1.8,8.1-4.4c1.7,2.6,4.7,4.4,8.1,4.4C95.7,49.6,100,45.3,100,40C100,40,100,40,100,40z
			 M9.6,46.5c-3.5,0-6.4-2.8-6.5-6.3l9.1-24.9h9.6l-5.5,24.3c0,0,0,0,0,0c0,0,0,0.1,0,0.1c0,0,0,0,0,0.1c0,0,0,0,0,0.1
			c0,0,0,0.1,0,0.1c0,0,0,0,0,0C16.1,43.5,13.2,46.5,9.6,46.5z M25.8,46.5c-3.5,0-6.4-2.8-6.5-6.4l5.7-24.8h9.2l-1.8,24.5
			c0,0,0,0,0,0.1c0,0,0,0,0,0.1C32.3,43.5,29.4,46.5,25.8,46.5z M41.9,46.5c-3.6,0-6.5-2.9-6.5-6.5l1.8-24.7h11.2v24.6
			C48.4,43.5,45.5,46.5,41.9,46.5z M58.1,46.5c-3.6,0-6.5-2.9-6.5-6.5c0,0,0,0,0,0V15.3h11.2L64.6,40C64.6,43.6,61.7,46.5,58.1,46.5
			z M74.2,46.5c-3.6,0-6.5-2.9-6.5-6.5c0,0,0,0,0-0.1c0,0,0,0,0-0.1l-1.8-24.5h9.2l5.7,24.8C80.7,43.6,77.8,46.5,74.2,46.5z
			 M90.4,46.5c-3.6,0-6.5-2.9-6.5-6.5c0,0,0,0,0,0c0,0,0-0.1,0-0.1c0,0,0,0,0-0.1c0,0,0,0,0-0.1c0,0,0-0.1,0-0.1c0,0,0,0,0,0
			l-5.5-24.3h9.6l9.1,24.9C96.7,43.7,93.9,46.5,90.4,46.5z"/>
		<path class="st2" d="M90.4,51.7c-0.9,0-1.6,0.7-1.6,1.6v33.6H11.2V53.2c0-0.9-0.7-1.6-1.6-1.6c-0.9,0-1.6,0.7-1.6,1.6v36.7h83.9
			V53.3C91.9,52.4,91.2,51.7,90.4,51.7z"/>
		<path class="st2" d="M33.2,84.3c0.7,0,1.3-0.6,1.3-1.3V53.2c0-0.7-0.6-1.3-1.3-1.3H15.4c-0.7,0-1.3,0.6-1.3,1.3v29.7
			c0,0.7,0.6,1.3,1.3,1.3H33.2z M16.8,54.5h15.1v27.1H16.8V54.5z"/>
		<path class="st2" d="M84.8,73.6c0.7,0,1.3-0.6,1.3-1.3v-19c0-0.7-0.6-1.3-1.3-1.3H39.3c-0.7,0-1.3,0.6-1.3,1.3v19
			c0,0.7,0.6,1.3,1.3,1.3H84.8z M40.6,54.6h42.9v16.3H40.6V54.6z"/>
		<circle class="st2" cx="28.2" cy="68.1" r="2.2"/>
	</g>
</g>
</svg>
