<?xml version="1.0" encoding="utf-8"?>
<!-- Generator: Adobe Illustrator 20.1.0, SVG Export Plug-In . SVG Version: 6.00 Build 0)  -->
<svg version="1.1" id="レイヤー_1" xmlns="http://www.w3.org/2000/svg" xmlns:xlink="http://www.w3.org/1999/xlink" x="0px"
	 y="0px" viewBox="0 0 270 393" style="enable-background:new 0 0 270 393;" xml:space="preserve">
<style type="text/css">
	.st0{fill:#FFFFFF;}
	.st1{fill:#040000;}
	.st2{fill:#F7F8F8;}
	.st3{clip-path:url(#SVGID_2_);}
	.st4{fill:#FFFFFF;stroke:#FFFFFF;stroke-miterlimit:10;}
</style>
<g id="ものくま前_1_">
	<g>
		<path class="st0" d="M212.3,173.1c0,0-2.4-69.6-10.4-103.1c0.4-0.1,0.7-0.2,1.1-0.4c13.9-6,15-36.4-7.9-42.6
			c-27.1-7.3-31.4,20.5-30.8,21.1c-19.2-1-43.4-0.7-62.9-0.1c0.2-4.7-8.8-26.5-31.7-20.2c-22.9,6.3-21.9,36.6-7.9,42.6
			c0.3,0.2,0.7,0.3,1.1,0.4c-5.2,33.1-14.7,95.1-11.8,103.1l0,0c-7.2,9.6-46.3,80.8-44.8,86.7c1.5,6,27.4,17.3,29.8,15
			c1.2-1.2,4.9-7.8,8.3-14.2C41.8,310.4,42.1,362.8,54,369c9.4,4.9,32,6.6,31.5,0c-0.4-5.8-0.7-13.2-0.2-19.7h89.9
			c0.5,6.5,0.1,13.9-0.2,19.7c-0.4,6.6,22.1,4.9,31.5,0c11.9-6.2,13-59.1,11.2-108.2c3.6,6.8,7.8,14.4,9.1,15.6
			c2.4,2.4,28.3-9,29.8-15c1.5-5.9-36-74.2-44.3-86c-0.1-1-0.1-1.5-0.1-1.5V173.1z"/>
		<g>
			<path class="st1" d="M216,173.1c-0.5-13.2-1.3-26.4-2.2-39.6c-1.6-21.5-3.3-43.5-8.3-64.5c-0.9,1.5-1.7,3.1-2.6,4.6
				c16.6-5.9,17.2-29.7,7.1-41.6c-11.8-13.9-35.7-13.3-45.2,2.6c-2.2,3.7-5.8,10.9-3.8,15.4c1.1-1.9,2.2-3.8,3.2-5.6
				c-20.9-1-41.9-0.7-62.9-0.1c1.3,1.3,2.5,2.5,3.8,3.8c0.1-7.3-5.6-15-11-19.3c-9.2-7.3-22.6-7.4-32.6-1.4
				c-16,9.5-19.8,40,0.4,47.2c-0.9-1.5-1.7-3.1-2.6-4.6c-3.2,20.6-6.4,41.2-9,61.9c-1.2,9.2-2.3,18.3-3,27.6
				c-0.4,4.9-1.3,10.8,0.3,15.6c0.1-1,0.3-1.9,0.4-2.9c-5.1,6.9-9.1,14.7-13.3,22.2c-6.5,11.5-12.8,23.2-18.8,35
				c-4.4,8.6-9.3,17.5-12.3,26.8c-3,9.1,6,13.8,13.1,17.4c5.2,2.7,11.8,6.2,17.8,6.3c2.4,0.1,3.8-0.7,5.3-2.6
				c3.2-4.1,5.5-9.2,7.9-13.8c-2.3-0.6-4.7-1.3-7-1.9c-1.5,29.3-3.3,59.7,1.4,88.7c1.1,7,2.7,16.6,8.8,21.2c7,5.2,19.4,6.4,27.8,5.5
				c3.6-0.4,8.2-1.3,9.9-5c1.3-2.7,0.4-6.3,0.3-9.2c-0.2-4.5-0.2-9,0.1-13.4c-1.3,1.3-2.5,2.5-3.8,3.8c26.2,0,52.4,0,78.6,0
				c3.8,0,7.6,0,11.4,0c-1.3-1.3-2.5-2.5-3.8-3.8c0.2,3.6,0.3,7.3,0.2,10.9c-0.1,3.2-1,7.2-0.3,10.3c0.8,3.4,4.1,5.1,7.2,5.9
				c8.9,2.1,21.4,0.4,29.4-3.9c6.5-3.5,8.6-12,10-18.6c2.6-12.3,3.4-25.1,3.8-37.6c0.7-18.5,0.3-36.9-0.3-55.4
				c-2.3,0.6-4.7,1.3-7,1.9c2.3,4.3,4.6,8.7,7.2,12.9c1.2,2,2.4,4.1,4.8,4.8c4.4,1.2,10.2-1.8,14.1-3.5c6.6-2.8,21.5-8.5,19.6-17.9
				c-1.7-8.4-6.8-16.7-10.6-24.3c-6-11.9-12.3-23.6-18.7-35.3c-3.1-5.6-6.3-11.2-9.6-16.8c-1.2-2-2.3-3.9-3.6-5.9
				C216.5,174.8,216,174.5,216,173.1c0-4.8-7.5-4.8-7.5,0c0,3.7,1.7,5.7,3.5,8.7c2.2,3.6,4.3,7.2,6.4,10.9
				c5.8,10,11.3,20.2,16.7,30.4c5,9.5,10,19,14.3,28.8c1.3,2.8,2.2,5.7,3.3,8.6c0.6,1.4,0.1,0.2,0.1,0.2c-1.6,1.5-3,2.8-4.9,3.9
				c-5.1,3.2-10.8,6-16.5,7.7c-1,0.3-1.9,0.5-2.9,0.7c-0.1,0-0.9,0.1-0.2,0.1c1.3,0,0.9,0.7,0.2-0.8c-2.2-4.6-5.1-8.9-7.5-13.4
				c-1.7-3.3-7.1-1.8-7,1.9c0.6,17.6,0.9,35.3,0.4,52.9c-0.4,13.3-0.9,27.1-4.1,40.1c-0.8,3.5-1.8,8.1-4.4,10.8
				c-2.7,2.8-8,3.5-11.7,4.1c-4.5,0.8-10.9,1.8-15.3-0.1c-1.1-0.5-0.1,0.8-0.2-0.4c-0.1-1.8,0.2-3.7,0.3-5.5
				c0.2-4.5,0.2-8.9-0.1-13.4c-0.1-2-1.6-3.8-3.8-3.8c-26.2,0-52.4,0-78.6,0c-3.8,0-7.6,0-11.4,0c-2.1,0-3.6,1.7-3.8,3.8
				c-0.3,4.5-0.3,8.9-0.1,13.4c0.1,1.5,0,3.3,0.2,4.8c0.4,2.3,0.6,0.8-0.2,1.2c-3.8,2-10.2,0.9-14.1,0.3c-3.9-0.6-10-1.3-12.9-4.3
				c-2.5-2.6-3.4-7.1-4.1-10.5c-3.1-13.1-3.3-26.9-3.5-40.3c-0.3-17.5,0.3-35,1.2-52.4c0.2-3.7-5.3-5.1-7-1.9c-1.6,3-3.3,6.1-5,9
				c-0.5,0.9-1.7,2.3-2,3.3c-0.4,1.6,0.2,0.2,0.4,0.3c-3.2-1.3-6.7-1.8-9.9-3.3c-3.9-1.7-7.9-3.7-11.4-6.2c-1.2-0.8-2.2-2-3.3-2.9
				c-0.1-0.1-0.1,0.6,0,0.1c4.1-13.1,11.2-25.4,17.6-37.5c7.5-14.1,15.1-28.3,23.5-41.9c1-1.6,2.7-3.4,3.3-5.2
				c0.7-2-0.2-4.2-0.2-6.3c-0.1-7.9,0.9-15.8,1.7-23.6c2.7-24.6,6.6-49.2,10.4-73.7c0.3-2.1-0.5-3.9-2.6-4.6
				c-6.1-2.2-8.3-9.7-8.3-15.6c0.1-7.6,3.8-14.8,10.6-18.4c7.6-4,17.4-3.8,24.1,2c3.4,2.9,7.4,8.7,7.4,12.8c0,2,1.7,3.8,3.8,3.8
				c20.9-0.6,41.9-0.9,62.9,0.1c3.1,0.2,4.3-3.2,3.2-5.6c0.9,1.9,0.3,1.5,0.6,0.7c0.3-0.9,0.4-1.9,0.7-2.8c0.8-2.6,2-5.1,3.6-7.3
				c5-6.9,13.1-8.4,21.1-6.4c8.7,2.2,14.8,9,15.7,17.9c0.7,6.5-1.3,15.6-8.2,18c-2,0.7-3.1,2.5-2.6,4.6c4.9,20.8,6.5,42.5,8.1,63.8
				c0.9,12.8,1.7,25.6,2.2,38.4C208.7,177.9,216.2,178,216,173.1z"/>
		</g>
	</g>
	<g>
		<path class="st1" d="M133.7,116.5l4.2-6.1h2.8v16.4h-3.3v-10.2l-3.5,5.1h-0.5l-3.5-5.1v10.2h-3.3v-16.4h2.8L133.7,116.5z"/>
	</g>
	<path class="st1" d="M78.7,40.6H76h-4.2c-1.3,0-2.3,1-2.3,2.3V51c0,1.3,1,2.3,2.3,2.3l4.2,1v5.5H81V51v-8.1v-2.3H78.7z M74.3,50.5
		v-6.7H76v6.7H74.3z"/>
	<path class="st1" d="M184.7,58.6h2.8h4.2c1.3,0,2.3-1,2.3-2.3v-8.1c0-1.3-1-2.3-2.3-2.3h-4.2v-6.5h-5.1v8.8v8.1v2.3H184.7z
		 M189.1,48.6v6.7h-1.6v-6.7H189.1z"/>
	<path class="st1" d="M115,104.7h-4.8c-1.2,0-2.2,1-2.2,2.2v11c0,1.2,1,2.2,2.2,2.2h4.8c1.2,0,2.2-1,2.2-2.2v-11
		C117.2,105.7,116.2,104.7,115,104.7z"/>
	<path class="st1" d="M156.4,104.7h-4.8c-1.2,0-2.2,1-2.2,2.2v11c0,1.2,1,2.2,2.2,2.2h4.8c1.2,0,2.2-1,2.2-2.2v-11
		C158.6,105.7,157.6,104.7,156.4,104.7z"/>
	<g>
		<path d="M200.5,206.6c0-17.1,2.8-32.7,7.4-44.5l-33.4,0c0,23.5-19.1,42.6-42.7,42.6c-23.5,0-42.6-19-42.7-42.6l-33,0
			c4.6,11.7,7.4,27.3,7.4,44.3c0,28.8-8,53.3-19.1,62.4c-0.6,15.2-1.1,33.8-0.2,36h174.1c0,0,0.8-19.4,0.8-36.4
			C208.2,259.2,200.5,235,200.5,206.6z"/>
		<g>
			<path d="M204.2,206.6c0.1-14.8,2-29.6,7.3-43.5c0.9-2.3-1.4-4.7-3.6-4.7c-11.1,0-22.3,0-33.4,0c-2.1,0-3.7,1.7-3.8,3.8
				c-0.4,21.2-17.4,38.9-38.9,38.9c-21.4,0-38.5-17.7-38.9-38.8c0-2-1.7-3.8-3.8-3.8c-11,0-22,0-33,0c-2.2,0-4.5,2.4-3.6,4.7
				c9.9,25.9,10.2,58.2,0.9,84.3c-1.8,4.9-4,9.9-7.2,14.1c-1.3,1.7-3.2,3-4.4,4.7c-1.6,2.2-1.2,5-1.3,7.6
				c-0.2,6.9-0.5,13.8-0.5,20.7c0,3.6-0.5,7.8,0.6,11.3c0.5,1.6,1.9,2.8,3.6,2.8c19.5,0,39.1,0,58.6,0c31.3,0,62.7,0,94,0
				c7.2,0,14.3,0,21.5,0c2.1,0,3.7-1.7,3.8-3.8c0.3-5.9,0.4-11.9,0.6-17.8c0.1-5.3,0.2-10.7,0.2-16c0-4.6-1.9-5.4-4.5-8.8
				C206.4,247.5,204.3,224.8,204.2,206.6c0-4.8-7.5-4.8-7.5,0c0.1,13.4,1.6,27,5.6,39.8c2.8,9,7,18.4,14.1,24.8
				c-0.4-0.9-0.7-1.8-1.1-2.7c0,12.1-0.3,24.3-0.8,36.4c1.3-1.3,2.5-2.5,3.8-3.8c-19.5,0-39.1,0-58.6,0c-31.3,0-62.7,0-94,0
				c-7.2,0-14.3,0-21.5,0c1.2,0.9,2.4,1.8,3.6,2.8c-1.2-3.8-0.4-9-0.3-12.9c0.1-7.4,0.4-14.8,0.6-22.1c-0.4,0.9-0.7,1.8-1.1,2.7
				C59.7,260.9,64,241.6,66,226c2.8-21.4,1.5-44.4-6.3-64.7c-1.2,1.6-2.4,3.2-3.6,4.7c11,0,22,0,33,0c-1.3-1.3-2.5-2.5-3.8-3.8
				c0.5,25.2,20.9,46.3,46.4,46.3c25.6,0,46-21.1,46.4-46.4c-1.3,1.3-2.5,2.5-3.8,3.8c11.1,0,22.3,0,33.4,0
				c-1.2-1.6-2.4-3.2-3.6-4.7c-5.5,14.4-7.5,30.1-7.6,45.5C196.7,211.4,204.2,211.4,204.2,206.6z"/>
		</g>
	</g>
	<g id="風呂敷_1_">
		<g>
			<g>
				<path class="st0" d="M124.8,165.1c0,0-74.1-6.4-72.1-22.5c0,0-9.3,10.2-7.1,21.7c0.7,3.6,2.4,6.9,5.8,8
					C65.1,176.6,105.2,186.7,124.8,165.1z"/>
				<g>
					<path d="M124.8,162.6c-11.5-1-22.9-2.6-34.2-4.7c-8.2-1.6-16.5-3.3-24.3-6.3c-3.5-1.3-11.6-4.1-11.2-8.9
						c0.2-2.1-2.9-3.3-4.3-1.8c-6,6.6-9.9,16.6-7.4,25.5c2.6,9.3,13.3,10.4,21.5,12c20.6,4.2,46,5,61.6-11.5
						c2.2-2.3-1.3-5.9-3.5-3.5c-13.3,14.1-34.7,14.1-52.5,11c-3.7-0.6-7.4-1.4-11-2.4c-2.9-0.7-7.4-1.3-9.6-3.5
						c-6-6.3-0.4-18.7,4.4-24.1c-1.4-0.6-2.8-1.2-4.3-1.8c-0.5,5.8,5.4,9.5,10,11.7c7.9,3.8,16.7,5.8,25.3,7.6
						c13,2.7,26.2,4.5,39.4,5.7C128,167.9,128,162.9,124.8,162.6z"/>
				</g>
			</g>
			<g>
				<path class="st0" d="M140.5,165.1c10.6-0.9,74.3-5.5,72.1-22.5c0,0,9.3,10.2,7.1,21.7c-0.7,3.6-2.4,6.9-5.8,8
					C200.2,176.6,160.1,186.7,140.5,165.1z"/>
				<g>
					<path d="M140.5,167.6c14.6-1.2,29.2-2.7,43.5-5.7c8.9-1.9,32.3-6,31.1-19.2c-1.4,0.6-2.8,1.2-4.3,1.8
						c4.9,5.4,10.4,17.7,4.4,24.1c-2.1,2.2-6.7,2.8-9.6,3.5c-3.6,0.9-7.3,1.7-11,2.4c-17.8,3-39.2,3-52.5-11
						c-2.2-2.3-5.7,1.2-3.5,3.5c15.6,16.6,41,15.7,61.6,11.5c8.1-1.7,18.9-2.7,21.5-12c2.4-8.9-1.4-18.8-7.4-25.5
						c-1.4-1.5-4.5-0.4-4.3,1.8c0.4,4.9-5.6,7.6-9.3,9.1c-7,3-14.7,4.7-22.2,6.1c-12.6,2.4-25.3,3.6-38.1,4.7
						C137.3,162.9,137.3,167.9,140.5,167.6z"/>
				</g>
			</g>
			<g>
				<g>
					<path class="st0" d="M136.8,168.8c22.9,0.3,18.7,21.4,18.7,21.4l-0.1,0.4c-19.8-0.2-18.9-21.9-18.9-21.8L136.8,168.8z"/>
					<g>
						<path d="M136.8,171.3c7.3,0.2,14.1,2.8,16,10.4c0.7,2.8,0.6,6,0.3,8.2c0.8-0.6,1.6-1.2,2.4-1.8c-10.8-0.4-16.7-9.1-16.4-19.3
							c-0.8,0.8-1.7,1.7-2.5,2.5C136.6,171.3,136.7,171.3,136.8,171.3c3.2,0.1,3.2-4.9,0-5c-0.1,0-0.2,0-0.3,0
							c-1.4,0-2.5,1.2-2.5,2.5c-0.3,13.1,7.9,23.9,21.4,24.3c1,0,2.2-0.8,2.4-1.8c0.7-4.2,0.7-8.6-0.8-12.7
							c-3.1-8.8-11.5-12.1-20.3-12.3C133.6,166.2,133.6,171.2,136.8,171.3z"/>
					</g>
				</g>
				<g>
					<path class="st0" d="M128.8,168.5c-22.9,0.3-17.6,21.4-17.6,21.4l0.1,0.4c22.9-0.3,17.8-21.8,17.8-21.8L128.8,168.5z"/>
					<g>
						<path d="M128.8,166c-8.6,0.2-17,3.5-19.7,12.3c-1.3,4.2-0.9,8.4-0.2,12.7c0.2,1,1.4,1.9,2.4,1.8c8.5-0.2,16.6-3.4,19.6-12
							c1.4-4.1,1.5-8.8,0.6-13c-0.2-1-1.3-1.9-2.4-1.8C128.9,166,128.8,166,128.8,166c-3.2,0.1-3.2,5.1,0,5c0.1,0,0.2,0,0.3,0
							c-0.8-0.6-1.6-1.2-2.4-1.8c0.6,2.7,0.6,5.8-0.1,8.6c-1.7,7.4-8.3,9.9-15.3,10.1c0.8,0.6,1.6,1.2,2.4,1.8
							c-0.4-2.8-0.8-5.4-0.2-8.2c1.5-7.7,8.2-10.2,15.3-10.4C132,170.9,132,165.9,128.8,166z"/>
					</g>
				</g>
				<g>
					<path class="st2" d="M141.5,168.5c0,4.4-2.4,8-6.8,8c-4.4,0-9.1-3.6-9.1-8c0-4.4,3.6-8,8-8
						C137.9,160.6,141.5,164.1,141.5,168.5z"/>
					<g>
						<path class="st1" d="M139,168.5c-0.1,2.7-1.2,5.4-4.3,5.5c-2.8,0.1-6.1-2.1-6.6-5C127.1,161.8,138.6,161.1,139,168.5
							c0.2,3.2,5.2,3.2,5,0c-0.3-5.7-4.6-10.5-10.5-10.5c-5.8,0-10.7,5-10.4,10.9c0.3,5.6,5.8,9.8,11.2,10c6.1,0.2,9.5-4.8,9.7-10.4
							C144.1,165.3,139.1,165.3,139,168.5z"/>
					</g>
				</g>
			</g>
		</g>
		<g>
			<defs>
				<path id="SVGID_1_" d="M51.4,171.3c-3.5-1.1-5.1-4.4-5.8-8c-2.3-11.5,7.1-21.7,7.1-21.7c-2,16.1,72.1,22.5,72.1,22.5
					C105.2,185.7,65.1,175.6,51.4,171.3z M213.9,171.3c3.5-1.1,5.1-4.4,5.8-8c2.3-11.5-7.1-21.7-7.1-21.7
					c2.1,17-61.6,21.5-72.1,22.5C160.1,185.7,200.2,175.6,213.9,171.3z M135.5,167.8c0,0-0.9,21.6,18.9,21.8l0.1-0.4
					c0,0,4.2-21.1-18.7-21.4L135.5,167.8z M127.8,167.5c-22.9,0.3-17.6,21.4-17.6,21.4l0.1,0.4c22.9-0.3,17.8-21.8,17.8-21.8
					L127.8,167.5z M132.5,159.6c-4.4,0-8,3.6-8,8c0,4.4,4.7,8,9.1,8c4.4,0,6.8-3.6,6.8-8C140.5,163.1,136.9,159.6,132.5,159.6z"/>
			</defs>
			<clipPath id="SVGID_2_">
				<use xlink:href="#SVGID_1_"  style="overflow:visible;"/>
			</clipPath>
			<g class="st3">
				<g>
					<path d="M50.4,174.2l5.7-5.7c1.5-1.5,1.6-1.9,0.6-2.9l-1.9-1.9c0.2,1.2,0.1,1.3-1.2,2.6l-3,3c-1.9,1.8-3.5,1.9-5.2,0.3
						l-2.2-2.2c-1.4-1.4-1.8-2.2-1.8-3.3c0.1-1,0.8-2.3,1.6-3.1l4-4c2.5-2.4,4.3-2.2,7.1,0.8l5,5c1.9,2,2.2,2.4,2.2,3.6
						c0,1.2-0.5,2.2-1.8,3.5l-6.9,6.9L50.4,174.2z M47.4,165.8c0.8,0.7,1.1,0.7,1.9,0l2.9-2.9c0.7-0.7,0.6-0.9-0.1-1.6l-1.2-1.2
						c-0.8-0.8-1.1-0.8-2.1,0.2l-2.4,2.4c-0.8,0.9-0.8,1.3,0,2.2L47.4,165.8z"/>
					<path d="M64.9,144l-6,6c-1.1,1.2-1.2,1.5-0.1,2.7l1.3,1.3c0.3-0.7,0.4-0.9,0.9-1.4l2.6-2.6c2.4-2.5,4.4-2.8,6.5-0.9l2.6,2.6
						c1.6,1.9,1.3,3.9-0.6,5.8l-3.3,3.3c-1.5,1.5-2.4,1.9-3.7,1.9c-1.3,0-2.6-0.7-3.9-2l-4.8-4.8c-1.4-1.4-1.5-1.6-1.8-2.1
						c-1-2.2-0.7-3.6,1.2-5.5l6.7-6.7L64.9,144z M69.1,155.5c0.7-0.8,0.8-1.2,0.1-1.9l-1.2-1.2c-0.7-0.7-1.3-0.7-2.1,0.1l-2.3,2.3
						c-1,1.1-1.1,1.5-0.3,2.3l1.2,1.2c0.7,0.7,1.1,0.7,1.8,0L69.1,155.5z"/>
				</g>
				<g>
					<path d="M82.2,200.1l5.7-5.7c1.5-1.5,1.6-1.9,0.6-2.9l-1.9-1.9c0.2,1.2,0.1,1.3-1.2,2.6l-3,3c-1.9,1.8-3.5,1.9-5.2,0.3
						l-2.2-2.2c-1.4-1.4-1.8-2.2-1.8-3.3c0.1-1,0.8-2.3,1.6-3.1l4-4c2.5-2.4,4.3-2.2,7.1,0.8l5,5c1.9,2,2.2,2.4,2.2,3.6
						c0,1.2-0.5,2.2-1.8,3.5l-6.9,6.9L82.2,200.1z M79.2,191.6c0.8,0.7,1.1,0.7,1.9,0l2.9-2.9c0.7-0.7,0.6-0.9-0.1-1.6l-1.2-1.2
						c-0.8-0.8-1.1-0.8-2.1,0.2l-2.4,2.4c-0.8,0.9-0.8,1.3,0,2.2L79.2,191.6z"/>
					<path d="M96.7,169.9l-6,6c-1.1,1.2-1.2,1.5-0.1,2.7l1.3,1.3c0.3-0.7,0.4-0.9,0.9-1.4l2.6-2.6c2.4-2.5,4.4-2.8,6.5-0.9l2.6,2.6
						c1.6,1.9,1.3,3.9-0.6,5.8l-3.3,3.3c-1.5,1.5-2.4,1.9-3.7,1.9c-1.3,0-2.6-0.7-3.9-2l-4.8-4.8c-1.4-1.4-1.5-1.6-1.8-2.1
						c-1-2.2-0.7-3.6,1.2-5.5l6.7-6.7L96.7,169.9z M101,181.3c0.7-0.8,0.8-1.2,0.1-1.9l-1.2-1.2c-0.7-0.7-1.3-0.7-2.1,0.1l-2.3,2.3
						c-1,1.1-1.1,1.5-0.3,2.3l1.2,1.2c0.7,0.7,1.1,0.7,1.8,0L101,181.3z"/>
				</g>
				<g>
					<path d="M106.5,175.7l5.7-5.7c1.5-1.5,1.6-1.9,0.6-2.9l-1.9-1.9c0.2,1.2,0.1,1.3-1.2,2.6l-3,3c-1.9,1.8-3.5,1.9-5.2,0.3
						l-2.2-2.2c-1.4-1.4-1.8-2.2-1.8-3.3c0.1-1,0.8-2.3,1.6-3.1l4-4c2.5-2.4,4.3-2.2,7.1,0.8l5,5c1.9,2,2.2,2.4,2.2,3.6
						c0,1.2-0.5,2.2-1.8,3.5l-6.9,6.9L106.5,175.7z M103.5,167.3c0.8,0.7,1.1,0.7,1.9,0l2.9-2.9c0.7-0.7,0.6-0.9-0.1-1.6l-1.2-1.2
						c-0.8-0.8-1.1-0.8-2.1,0.2l-2.4,2.4c-0.8,0.9-0.8,1.3,0,2.2L103.5,167.3z"/>
					<path d="M121.1,145.5l-6,6c-1.1,1.2-1.2,1.5-0.1,2.7l1.3,1.3c0.3-0.7,0.4-0.9,0.9-1.4l2.6-2.6c2.4-2.5,4.4-2.8,6.5-0.9l2.6,2.6
						c1.6,1.9,1.3,3.9-0.6,5.8l-3.3,3.3c-1.5,1.5-2.4,1.9-3.7,1.9c-1.3,0-2.6-0.7-3.9-2l-4.8-4.8c-1.4-1.4-1.5-1.6-1.8-2.1
						c-1-2.2-0.7-3.6,1.2-5.5l6.7-6.7L121.1,145.5z M125.3,157c0.7-0.8,0.8-1.2,0.1-1.9l-1.2-1.2c-0.7-0.7-1.3-0.7-2.1,0.1l-2.3,2.3
						c-1,1.1-1.1,1.5-0.3,2.3l1.2,1.2c0.7,0.7,1.1,0.7,1.8,0L125.3,157z"/>
				</g>
				<g>
					<path d="M107.2,208.7l5.7-5.7c1.5-1.5,1.6-1.9,0.6-2.9l-1.9-1.9c0.2,1.2,0.1,1.3-1.2,2.6l-3,3c-1.9,1.8-3.5,1.9-5.2,0.3
						l-2.2-2.2c-1.4-1.4-1.8-2.2-1.8-3.3c0.1-1,0.8-2.3,1.6-3.1l4-4c2.5-2.4,4.3-2.2,7.1,0.8l5,5c1.9,2,2.2,2.4,2.2,3.6
						c0,1.2-0.5,2.2-1.8,3.5l-6.9,6.9L107.2,208.7z M104.2,200.3c0.8,0.7,1.1,0.7,1.9,0l2.9-2.9c0.7-0.7,0.6-0.9-0.1-1.6l-1.2-1.2
						c-0.8-0.8-1.1-0.8-2.1,0.2l-2.4,2.4c-0.8,0.9-0.8,1.3,0,2.2L104.2,200.3z"/>
					<path d="M121.7,178.5l-6,6c-1.1,1.2-1.2,1.5-0.1,2.7l1.3,1.3c0.3-0.7,0.4-0.9,0.9-1.4l2.6-2.6c2.4-2.5,4.4-2.8,6.5-0.9l2.6,2.6
						c1.6,1.9,1.3,3.9-0.6,5.8l-3.3,3.3c-1.5,1.5-2.4,1.9-3.7,1.9c-1.3,0-2.6-0.7-3.9-2l-4.8-4.8c-1.4-1.4-1.5-1.6-1.8-2.1
						c-1-2.2-0.7-3.6,1.2-5.5l6.7-6.7L121.7,178.5z M126,190c0.7-0.8,0.8-1.2,0.1-1.9l-1.2-1.2c-0.7-0.7-1.3-0.7-2.1,0.1l-2.3,2.3
						c-1,1.1-1.1,1.5-0.3,2.3l1.2,1.2c0.7,0.7,1.1,0.7,1.8,0L126,190z"/>
				</g>
				<g>
					<path d="M131.5,184.4l5.7-5.7c1.5-1.5,1.6-1.9,0.6-2.9l-1.9-1.9c0.2,1.2,0.1,1.3-1.2,2.6l-3,3c-1.9,1.8-3.5,1.9-5.2,0.3
						l-2.2-2.2c-1.4-1.4-1.8-2.2-1.8-3.3c0.1-1,0.8-2.3,1.6-3.1l4-4c2.5-2.4,4.3-2.2,7.1,0.8l5,5c1.9,2,2.2,2.4,2.2,3.6
						c0,1.2-0.5,2.2-1.8,3.5l-6.9,6.9L131.5,184.4z M128.5,175.9c0.8,0.7,1.1,0.7,1.9,0l2.9-2.9c0.7-0.7,0.6-0.9-0.1-1.6l-1.2-1.2
						c-0.8-0.8-1.1-0.8-2.1,0.2l-2.4,2.4c-0.8,0.9-0.8,1.3,0,2.2L128.5,175.9z"/>
					<path d="M146.1,154.2l-6,6c-1.1,1.2-1.2,1.5-0.1,2.7l1.3,1.3c0.3-0.7,0.4-0.9,0.9-1.4l2.6-2.6c2.4-2.5,4.4-2.8,6.5-0.9l2.6,2.6
						c1.6,1.9,1.3,3.9-0.6,5.8l-3.3,3.3c-1.5,1.5-2.4,1.9-3.7,1.9c-1.3,0-2.6-0.7-3.9-2l-4.8-4.8c-1.4-1.4-1.5-1.6-1.8-2.1
						c-1-2.2-0.7-3.6,1.2-5.5l6.7-6.7L146.1,154.2z M150.3,165.6c0.7-0.8,0.8-1.2,0.1-1.9l-1.2-1.2c-0.7-0.7-1.3-0.7-2.1,0.1
						l-2.3,2.3c-1,1.1-1.1,1.5-0.3,2.3l1.2,1.2c0.7,0.7,1.1,0.7,1.8,0L150.3,165.6z"/>
				</g>
				<g>
					<path d="M134.9,211.4l5.7-5.7c1.5-1.5,1.6-1.9,0.6-2.9l-1.9-1.9c0.2,1.2,0.1,1.3-1.2,2.6l-3,3c-1.9,1.8-3.5,1.9-5.2,0.3
						l-2.2-2.2c-1.4-1.4-1.8-2.2-1.8-3.3c0.1-1,0.8-2.3,1.6-3.1l4-4c2.5-2.4,4.3-2.2,7.1,0.8l5,5c1.9,2,2.2,2.4,2.2,3.6
						c0,1.2-0.5,2.2-1.8,3.5l-6.9,6.9L134.9,211.4z M131.9,202.9c0.8,0.7,1.1,0.7,1.9,0l2.9-2.9c0.7-0.7,0.6-0.9-0.1-1.6l-1.2-1.2
						c-0.8-0.8-1.1-0.8-2.1,0.2l-2.4,2.4c-0.8,0.9-0.8,1.3,0,2.2L131.9,202.9z"/>
					<path d="M149.4,181.2l-6,6c-1.1,1.2-1.2,1.5-0.1,2.7l1.3,1.3c0.3-0.7,0.4-0.9,0.9-1.4l2.6-2.6c2.4-2.5,4.4-2.8,6.5-0.9l2.6,2.6
						c1.6,1.9,1.3,3.9-0.6,5.8l-3.3,3.3c-1.5,1.5-2.4,1.9-3.7,1.9c-1.3,0-2.6-0.7-3.9-2l-4.8-4.8c-1.4-1.4-1.5-1.6-1.8-2.1
						c-1-2.2-0.7-3.6,1.2-5.5l6.7-6.7L149.4,181.2z M153.6,192.6c0.7-0.8,0.8-1.2,0.1-1.9l-1.2-1.2c-0.7-0.7-1.3-0.7-2.1,0.1
						l-2.3,2.3c-1,1.1-1.1,1.5-0.3,2.3l1.2,1.2c0.7,0.7,1.1,0.7,1.8,0L153.6,192.6z"/>
				</g>
				<g>
					<path d="M159.2,187.1l5.7-5.7c1.5-1.5,1.6-1.9,0.6-2.9l-1.9-1.9c0.2,1.2,0.1,1.3-1.2,2.6l-3,3c-1.9,1.8-3.5,1.9-5.2,0.3
						l-2.2-2.2c-1.4-1.4-1.8-2.2-1.8-3.3c0.1-1,0.8-2.3,1.6-3.1l4-4c2.5-2.4,4.3-2.2,7.1,0.8l5,5c1.9,2,2.2,2.4,2.2,3.6
						c0,1.2-0.5,2.2-1.8,3.5l-6.9,6.9L159.2,187.1z M156.2,178.6c0.8,0.7,1.1,0.7,1.9,0l2.9-2.9c0.7-0.7,0.6-0.9-0.1-1.6l-1.2-1.2
						c-0.8-0.8-1.1-0.8-2.1,0.2l-2.4,2.4c-0.8,0.9-0.8,1.3,0,2.2L156.2,178.6z"/>
					<path d="M173.7,156.9l-6,6c-1.1,1.2-1.2,1.5-0.1,2.7l1.3,1.3c0.3-0.7,0.4-0.9,0.9-1.4l2.6-2.6c2.4-2.5,4.4-2.8,6.5-0.9l2.6,2.6
						c1.6,1.9,1.3,3.9-0.6,5.8l-3.3,3.3c-1.5,1.5-2.4,1.9-3.7,1.9c-1.3,0-2.6-0.7-3.9-2l-4.8-4.8c-1.4-1.4-1.5-1.6-1.8-2.1
						c-1-2.2-0.7-3.6,1.2-5.5l6.7-6.7L173.7,156.9z M178,168.3c0.7-0.8,0.8-1.2,0.1-1.9l-1.2-1.2c-0.7-0.7-1.3-0.7-2.1,0.1l-2.3,2.3
						c-1,1.1-1.1,1.5-0.3,2.3l1.2,1.2c0.7,0.7,1.1,0.7,1.8,0L178,168.3z"/>
				</g>
				<g>
					<path d="M163.5,211.7l5.7-5.7c1.5-1.5,1.6-1.9,0.6-2.9l-1.9-1.9c0.2,1.2,0.1,1.3-1.2,2.6l-3,3c-1.9,1.8-3.5,1.9-5.2,0.3
						l-2.2-2.2c-1.4-1.4-1.8-2.2-1.8-3.3c0.1-1,0.8-2.3,1.6-3.1l4-4c2.5-2.4,4.3-2.2,7.1,0.8l5,5c1.9,2,2.2,2.4,2.2,3.6
						c0,1.2-0.5,2.2-1.8,3.5l-6.9,6.9L163.5,211.7z M160.5,203.3c0.8,0.7,1.1,0.7,1.9,0l2.9-2.9c0.7-0.7,0.6-0.9-0.1-1.6l-1.2-1.2
						c-0.8-0.8-1.1-0.8-2.1,0.2l-2.4,2.4c-0.8,0.9-0.8,1.3,0,2.2L160.5,203.3z"/>
					<path d="M178.1,181.5l-6,6c-1.1,1.2-1.2,1.5-0.1,2.7l1.3,1.3c0.3-0.7,0.4-0.9,0.9-1.4l2.6-2.6c2.4-2.5,4.4-2.8,6.5-0.9l2.6,2.6
						c1.6,1.9,1.3,3.9-0.6,5.8l-3.3,3.3c-1.5,1.5-2.4,1.9-3.7,1.9c-1.3,0-2.6-0.7-3.9-2l-4.8-4.8c-1.4-1.4-1.5-1.6-1.8-2.1
						c-1-2.2-0.7-3.6,1.2-5.5l6.7-6.7L178.1,181.5z M182.3,193c0.7-0.8,0.8-1.2,0.1-1.9l-1.2-1.2c-0.7-0.7-1.3-0.7-2.1,0.1l-2.3,2.3
						c-1,1.1-1.1,1.5-0.3,2.3l1.2,1.2c0.7,0.7,1.1,0.7,1.8,0L182.3,193z"/>
				</g>
				<g>
					<path d="M187.9,187.4l5.7-5.7c1.5-1.5,1.6-1.9,0.6-2.9l-1.9-1.9c0.2,1.2,0.1,1.3-1.2,2.6l-3,3c-1.9,1.8-3.5,1.9-5.2,0.3
						l-2.2-2.2c-1.4-1.4-1.8-2.2-1.8-3.3c0.1-1,0.8-2.3,1.6-3.1l4-4c2.5-2.4,4.3-2.2,7.1,0.8l5,5c1.9,2,2.2,2.4,2.2,3.6
						c0,1.2-0.5,2.2-1.8,3.5l-6.9,6.9L187.9,187.4z M184.9,178.9c0.8,0.7,1.1,0.7,1.9,0l2.9-2.9c0.7-0.7,0.6-0.9-0.1-1.6l-1.2-1.2
						c-0.8-0.8-1.1-0.8-2.1,0.2l-2.4,2.4c-0.8,0.9-0.8,1.3,0,2.2L184.9,178.9z"/>
					<path d="M202.4,157.2l-6,6c-1.1,1.2-1.2,1.5-0.1,2.7l1.3,1.3c0.3-0.7,0.4-0.9,0.9-1.4l2.6-2.6c2.4-2.5,4.4-2.8,6.5-0.9l2.6,2.6
						c1.6,1.9,1.3,3.9-0.6,5.8l-3.3,3.3c-1.5,1.5-2.4,1.9-3.7,1.9c-1.3,0-2.6-0.7-3.9-2l-4.8-4.8c-1.4-1.4-1.5-1.6-1.8-2.1
						c-1-2.2-0.7-3.6,1.2-5.5l6.7-6.7L202.4,157.2z M206.6,168.6c0.7-0.8,0.8-1.2,0.1-1.9l-1.2-1.2c-0.7-0.7-1.3-0.7-2.1,0.1
						l-2.3,2.3c-1,1.1-1.1,1.5-0.3,2.3l1.2,1.2c0.7,0.7,1.1,0.7,1.8,0L206.6,168.6z"/>
				</g>
				<g>
					<path d="M212.2,160.7l5.7-5.7c1.5-1.5,1.6-1.9,0.6-2.9l-1.9-1.9c0.2,1.2,0.1,1.3-1.2,2.6l-3,3c-1.9,1.8-3.5,1.9-5.2,0.3
						l-2.2-2.2c-1.4-1.4-1.8-2.2-1.8-3.3c0.1-1,0.8-2.3,1.6-3.1l4-4c2.5-2.4,4.3-2.2,7.1,0.8l5,5c1.9,2,2.2,2.4,2.2,3.6
						c0,1.2-0.5,2.2-1.8,3.5l-6.9,6.9L212.2,160.7z M209.2,152.3c0.8,0.7,1.1,0.7,1.9,0l2.9-2.9c0.7-0.7,0.6-0.9-0.1-1.6l-1.2-1.2
						c-0.8-0.8-1.1-0.8-2.1,0.2l-2.4,2.4c-0.8,0.9-0.8,1.3,0,2.2L209.2,152.3z"/>
					<path d="M226.7,130.5l-6,6c-1.1,1.2-1.2,1.5-0.1,2.7l1.3,1.3c0.3-0.7,0.4-0.9,0.9-1.4l2.6-2.6c2.4-2.5,4.4-2.8,6.5-0.9l2.6,2.6
						c1.6,1.9,1.3,3.9-0.6,5.8l-3.3,3.3c-1.5,1.5-2.4,1.9-3.7,1.9c-1.3,0-2.6-0.7-3.9-2l-4.8-4.8c-1.4-1.4-1.5-1.6-1.8-2.1
						c-1-2.2-0.7-3.6,1.2-5.5l6.7-6.7L226.7,130.5z M231,142c0.7-0.8,0.8-1.2,0.1-1.9l-1.2-1.2c-0.7-0.7-1.3-0.7-2.1,0.1l-2.3,2.3
						c-1,1.1-1.1,1.5-0.3,2.3l1.2,1.2c0.7,0.7,1.1,0.7,1.8,0L231,142z"/>
				</g>
				<g>
					<path d="M79.9,174.2l5.7-5.7c1.5-1.5,1.6-1.9,0.6-2.9l-1.9-1.9c0.2,1.2,0.1,1.3-1.2,2.6l-3,3c-1.9,1.8-3.5,1.9-5.2,0.3
						l-2.2-2.2c-1.4-1.4-1.8-2.2-1.8-3.3c0.1-1,0.8-2.3,1.6-3.1l4-4c2.5-2.4,4.3-2.2,7.1,0.8l5,5c1.9,2,2.2,2.4,2.2,3.6
						c0,1.2-0.5,2.2-1.8,3.5l-6.9,6.9L79.9,174.2z M76.9,165.8c0.8,0.7,1.1,0.7,1.9,0l2.9-2.9c0.7-0.7,0.6-0.9-0.1-1.6l-1.2-1.2
						c-0.8-0.8-1.1-0.8-2.1,0.2l-2.4,2.4c-0.8,0.9-0.8,1.3,0,2.2L76.9,165.8z"/>
					<path d="M94.4,144l-6,6c-1.1,1.2-1.2,1.5-0.1,2.7l1.3,1.3c0.3-0.7,0.4-0.9,0.9-1.4l2.6-2.6c2.4-2.5,4.4-2.8,6.5-0.9l2.6,2.6
						c1.6,1.9,1.3,3.9-0.6,5.8l-3.3,3.3c-1.5,1.5-2.4,1.9-3.7,1.9c-1.3,0-2.6-0.7-3.9-2l-4.8-4.8c-1.4-1.4-1.5-1.6-1.8-2.1
						c-1-2.2-0.7-3.6,1.2-5.5l6.7-6.7L94.4,144z M98.6,155.5c0.7-0.8,0.8-1.2,0.1-1.9l-1.2-1.2c-0.7-0.7-1.3-0.7-2.1,0.1l-2.3,2.3
						c-1,1.1-1.1,1.5-0.3,2.3l1.2,1.2c0.7,0.7,1.1,0.7,1.8,0L98.6,155.5z"/>
				</g>
				<g>
					<path d="M55.2,198.9l5.7-5.7c1.5-1.5,1.6-1.9,0.6-2.9l-1.9-1.9c0.2,1.2,0.1,1.3-1.2,2.6l-3,3c-1.9,1.8-3.5,1.9-5.2,0.3
						l-2.2-2.2c-1.4-1.4-1.8-2.2-1.8-3.3c0.1-1,0.8-2.3,1.6-3.1l4-4c2.5-2.4,4.3-2.2,7.1,0.8l5,5c1.9,2,2.2,2.4,2.2,3.6
						c0,1.2-0.5,2.2-1.8,3.5l-6.9,6.9L55.2,198.9z M52.2,190.4c0.8,0.7,1.1,0.7,1.9,0l2.9-2.9c0.7-0.7,0.6-0.9-0.1-1.6l-1.2-1.2
						c-0.8-0.8-1.1-0.8-2.1,0.2l-2.4,2.4c-0.8,0.9-0.8,1.3,0,2.2L52.2,190.4z"/>
					<path d="M69.7,168.7l-6,6c-1.1,1.2-1.2,1.5-0.1,2.7l1.3,1.3c0.3-0.7,0.4-0.9,0.9-1.4l2.6-2.6c2.4-2.5,4.4-2.8,6.5-0.9l2.6,2.6
						c1.6,1.9,1.3,3.9-0.6,5.8l-3.3,3.3c-1.5,1.5-2.4,1.9-3.7,1.9c-1.3,0-2.6-0.7-3.9-2l-4.8-4.8c-1.4-1.4-1.5-1.6-1.8-2.1
						c-1-2.2-0.7-3.6,1.2-5.5l6.7-6.7L69.7,168.7z M74,180.1c0.7-0.8,0.8-1.2,0.1-1.9l-1.2-1.2c-0.7-0.7-1.3-0.7-2.1,0.1l-2.3,2.3
						c-1,1.1-1.1,1.5-0.3,2.3l1.2,1.2c0.7,0.7,1.1,0.7,1.8,0L74,180.1z"/>
				</g>
			</g>
		</g>
	</g>
</g>
<g>
	<path class="st4" d="M117,216.6h-9.1v27.8h-3.1v-27.9h-9.1v-2.7H117V216.6z"/>
	<path class="st4" d="M142.2,221v16.3c0,6.1-4.8,7.1-7.6,7.1h-5.8c-2.8,0-7.6-1-7.6-7.1V221c0-6.2,4.8-7.2,7.6-7.2h5.8
		C137.4,213.9,142.2,214.9,142.2,221z M134.7,216.7h-5.8c-3.1,0-4.3,1.4-4.3,4.3v16.3c0,4.3,2.9,4.3,4.3,4.3h5.8
		c1.4,0,4.3,0,4.3-4.3V221C139,218.1,137.8,216.7,134.7,216.7z"/>
	<path class="st4" d="M170.3,221v3.8c0,5.9-4.2,7.2-7.6,7.2h-10.2v12.5h-3.2v-30.6h13.4C166.1,213.9,170.3,215.1,170.3,221z
		 M162.7,216.6h-10.3v12.6h10.3c2.8,0,4.3-1.7,4.3-4.6v-3.5C167.1,218.3,165.5,216.6,162.7,216.6z"/>
</g>
</svg>
