<?xml version="1.0" encoding="utf-8"?>
<!-- Generator: Adobe Illustrator 21.1.0, SVG Export Plug-In . SVG Version: 6.00 Build 0)  -->
<svg version="1.1" id="レイヤー_1" xmlns="http://www.w3.org/2000/svg" xmlns:xlink="http://www.w3.org/1999/xlink" x="0px"
	 y="0px" viewBox="0 0 700 100" style="enable-background:new 0 0 700 100;" xml:space="preserve">
<style type="text/css">
	.st0{fill:#FFFFFF;}
	.st1{fill:#84FF00;}
</style>
<g>
	<path class="st0" d="M95.6,3.9v92.9H73.6V47.5L55.6,78H43L25.1,47.3v49.5H3V3.9h20.9l25.4,43.5L74.7,3.9H95.6z"/>
	<path class="st0" d="M169.7,1.9c29.9,0,44.8,22.6,44.8,48.4c0,25.9-14.9,48.4-44.8,48.4c-29.9,0-44.8-22.6-44.8-48.4
		C125,24.5,139.9,1.9,169.7,1.9z M169.7,24.5c-14.4,0-22.1,11-22.1,25.9s7.6,25.9,22.1,25.9s22.1-11,22.1-25.9
		S184.2,24.5,169.7,24.5z"/>
	<path class="st0" d="M239.8,96.8V3.9h25.5l40,53.3c-0.4-4.4-0.6-10.2-0.6-15.4V3.9h27v92.9h-25.5l-40-53.2
		c0.4,4.4,0.6,10.2,0.6,15.3v37.9H239.8z"/>
	<path class="st0" d="M401.6,1.9c29.9,0,44.8,22.6,44.8,48.4c0,25.9-14.9,48.4-44.8,48.4s-44.8-22.6-44.8-48.4
		C356.8,24.5,371.7,1.9,401.6,1.9z M401.6,24.5c-14.4,0-22.1,11-22.1,25.9s7.6,25.9,22.1,25.9s22.1-11,22.1-25.9
		S416,24.5,401.6,24.5z"/>
	<path class="st0" d="M513.6,43.8v18.6h-45.4V43.8H513.6z"/>
	<path class="st1" d="M572.6,4.6c27.6,0,38.1,17.9,38.1,47.9c0,32.9-18.9,46.3-39.4,46.3c-8,0-16.4-2-23.9-5.7V71.9
		c5.5,4.2,13,7,20.3,7c9.6,0,18.3-3.5,20.8-17.6c-6.2,3.3-12.2,4.9-19.3,4.9c-15.2,0-28.7-10.1-28.7-29.7
		C540.4,15.1,555.5,4.6,572.6,4.6z M562.5,35.3c0,8.2,6.4,11,13.6,11c4.1,0,8.4-1.3,12.5-3.8c-1.6-15.3-7-18.6-14.3-18.6
		C568.1,23.8,562.5,27.3,562.5,35.3z"/>
	<path class="st1" d="M669.3,37.2c15.2,0,28.7,10.1,28.7,29.7c0,21.4-15,31.8-32.1,31.8c-27.6,0-38.1-17.9-38.1-47.9
		c0-32.9,18.9-46.3,39.4-46.3c8,0,16.4,2,23.9,5.7v21.2c-5.5-4.2-13-7-20.3-7c-9.6,0-18.3,3.5-20.8,17.6
		C656.2,38.8,662.1,37.2,669.3,37.2z M664,79.6c6.2,0,11.8-3.5,11.8-11.4c0-8.2-6.4-11-13.6-11c-4.1,0-8.4,1.3-12.5,3.8
		C651.3,76.3,656.8,79.6,664,79.6z"/>
</g>
</svg>
