<?xml version="1.0" encoding="utf-8"?>
<!-- Generator: Adobe Illustrator 22.1.0, SVG Export Plug-In . SVG Version: 6.00 Build 0)  -->
<svg version="1.1" id="レイヤー_1" xmlns="http://www.w3.org/2000/svg" xmlns:xlink="http://www.w3.org/1999/xlink" x="0px"
	 y="0px" viewBox="0 0 172 52" style="enable-background:new 0 0 172 52;" xml:space="preserve">
<style type="text/css">
	.st0{fill:#84FF00;}
</style>
<g>
	<path class="st0" d="M12.8,30.1c2.1,0,4.3,0.5,6.1,1.3v5.3c-1.3-1.1-3.2-1.7-5.1-1.7c-3.3,0-6.6,1.8-6.6,6.4c0,4.1,3.3,5.8,6.6,5.8
		c2.2,0,4.1-0.7,5.3-1.8v5.4c-1.8,0.9-3.9,1.3-6.1,1.3C7.1,52,1.4,48.9,1.4,41.4C1.4,33.4,7.1,30.1,12.8,30.1z"/>
	<path class="st0" d="M36.8,30.1C44.3,30.1,48,35.2,48,41s-3.7,11-11.2,11s-11.2-5.1-11.2-10.9S29.3,30.1,36.8,30.1z M36.8,35.2
		c-3.6,0-5.5,2.5-5.5,5.8s1.9,5.8,5.5,5.8s5.5-2.5,5.5-5.8S40.5,35.2,36.8,35.2z"/>
	<path class="st0" d="M55.7,51.6v-21h5.2l8.2,12.1c-0.1-1-0.1-2.3-0.1-3.5v-8.6h5.5v21h-5.2l-8.2-12c0.1,1,0.1,2.3,0.1,3.4v8.6H55.7
		z"/>
	<path class="st0" d="M98.7,30.6v4.9h-5.9v16h-5.5v-16h-5.9v-4.9H98.7z"/>
	<path class="st0" d="M101.4,51.6l8.3-21h6l8.3,21h-5.7l-1.2-3.3h-8.7l-1.2,3.3H101.4z M110,43.8h5.4l-2.2-6.1
		c-0.2-0.5-0.4-1-0.5-2.1c-0.2,1.1-0.4,1.6-0.5,2.1L110,43.8z"/>
	<path class="st0" d="M139.9,30.1c2.1,0,4.3,0.5,6.1,1.3v5.3c-1.3-1.1-3.2-1.7-5.1-1.7c-3.3,0-6.6,1.8-6.6,6.4
		c0,4.1,3.3,5.8,6.6,5.8c2.2,0,4.1-0.7,5.3-1.8v5.4c-1.8,0.9-3.9,1.3-6.1,1.3c-5.8,0-11.5-3.1-11.5-10.6
		C128.6,33.4,134.3,30.1,139.9,30.1z"/>
	<path class="st0" d="M169.8,30.6v4.9h-5.9v16h-5.5v-16h-5.9v-4.9H169.8z"/>
</g>
<g>
	<path class="st0" d="M43.5,2.9v1.4h-3.2v1.5c0.3-0.1,0.9-0.1,1.7-0.1c4,0,4.8,2.2,4.8,3.7c0,1-0.4,2.5-2.4,3.2
		c-0.9,0.3-1.7,0.4-2.6,0.4l-0.2-1.4c1.1,0,3.6-0.1,3.6-2.2c0-1-0.7-2.3-3-2.3c-0.5,0-1.1,0-1.8,0.2v4c0,1.1-0.7,1.6-1.9,1.6
		c-2.1,0-3.1-1.3-3.1-2.8c0-2.4,2.3-3.3,3.5-3.8V4.4h-3.3V2.9h3.3V1.3h1.5V3L43.5,2.9L43.5,2.9z M38.8,7.7c-0.8,0.4-2.1,1-2.1,2.3
		c0,0.8,0.6,1.4,1.5,1.4c0.6,0,0.6-0.2,0.6-0.4V7.7z M44.6,1.3c1.3,1.1,2.2,2.4,2.8,3.7L46,5.8c-0.5-1.1-1.3-2.5-2.6-3.7L44.6,1.3z"
		/>
	<path class="st0" d="M52.1,1.2h5.4v5.3h-4v7.3h-1.4V1.2z M53.5,2.4v1h2.6v-1H53.5z M53.5,4.3v1.1h2.6V4.3H53.5z M61.2,7.6v4.7H55
		V7.6H61.2z M56.4,8.8v2.3h3.5V8.8H56.4z M62.9,6.6h-4.1V1.2h5.5v11.4c0,1.2-0.6,1.2-1.1,1.2H61l-0.2-1.4h1.7c0.3,0,0.3-0.2,0.3-0.4
		V6.6H62.9z M60.2,2.4v1h2.7v-1H60.2z M60.2,4.3v1.1h2.7V4.3H60.2z"/>
	<path class="st0" d="M71.6,2c-0.1,0.9-0.3,2.3-0.3,4.2c0,1.8,0.1,4.8,1.5,4.8c0.4,0,0.8-0.3,1-0.7C74.1,9.8,74.6,9,74.9,8l1.3,0.8
		c-0.4,1-1,2.4-1.9,3.3c-0.5,0.5-1.1,0.7-1.6,0.7c-2.5,0-3-3.6-3-6.8c0-1.4,0.1-2.9,0.2-4.1L71.6,2z M79.6,11.4
		c0-2.5,0.1-6.2-2.5-8.3l1.2-0.9c2.2,2,3,4,3,9.1L79.6,11.4z"/>
	<path class="st0" d="M98.1,6c-0.7-0.3-1.2-0.6-2.1-1.1V6h-7.3V4.8c-0.8,0.5-1.4,0.8-2.2,1.1l-0.9-1.5c2.2-0.7,4.5-2.2,6-3.9H93
		c1.2,1.4,2.6,2.5,6,3.9L98.1,6z M97.4,7.4v6.1H87V7.4H97.4z M96,8.7h-7.5v3.5H96V8.7z M95.6,4.7c-2.1-1.4-2.8-2.1-3.4-2.8
		c-0.9,1.1-2,2-3.3,2.8H95.6z"/>
	<path class="st0" d="M103.6,4.8V3.3h2.1v-2h1.6c-0.1,2.4-0.1,2.8-0.1,3.9c1.1-0.9,2.2-1.7,4.1-1.7c2.4,0,4,1.8,4,4.2
		c0,4-3.2,5-5.9,5.1l-0.5-1.5c1.5,0,4.7-0.1,4.7-3.6c0-1.3-0.6-2.9-2.7-2.9c-1.7,0-3,1.1-3.9,1.9c0,1.2,0,1.6,0,6.3h-1.6V8.6
		c-0.7,1.3-1.4,2-1.7,2.4l-0.8-1.6c1.3-1.3,1.9-2.3,2.5-3.4V4.8H103.6z"/>
	<path class="st0" d="M128.5,4c0-1.7,0-1.9-0.1-2.8h1.6c0,0.4,0,2.4,0,2.8l2.3-0.1v1.5H130c0,3.1,0.1,4.4-2.3,4.4
		c-0.2,0-0.9,0-1.8-0.2V8.2c0.6,0.1,1,0.2,1.6,0.2c0.9,0,0.9-0.3,0.8-3l-4.7,0.1v3.6c0,2.2,0.7,2.3,3.3,2.3c2.4,0,3.3-0.1,4-0.1v1.5
		c-1.3,0.1-2,0.1-3.2,0.1c-3.6,0-5.7,0-5.7-3.9V5.5h-2.1V4l2.1-0.1V1.4h1.6v2.7L128.5,4z"/>
</g>
</svg>
