<?xml version="1.0" encoding="utf-8"?>
<!-- Generator: Adobe Illustrator 22.1.0, SVG Export Plug-In . SVG Version: 6.00 Build 0)  -->
<svg version="1.1" id="レイヤー_1" xmlns="http://www.w3.org/2000/svg" xmlns:xlink="http://www.w3.org/1999/xlink" x="0px"
	 y="0px" viewBox="0 0 186 52" style="enable-background:new 0 0 186 52;" xml:space="preserve">
<g>
	<path d="M12.9,30.1c2.1,0,4.3,0.5,6.1,1.3v5.3c-1.3-1.1-3.2-1.7-5.1-1.7c-3.3,0-6.6,1.8-6.6,6.4c0,4.1,3.3,5.8,6.6,5.8
		c2.2,0,4.1-0.7,5.3-1.8v5.4c-1.8,0.9-3.9,1.3-6.1,1.3C7.3,52,1.6,48.9,1.6,41.4C1.6,33.4,7.3,30.1,12.9,30.1z"/>
	<path d="M37,30.1c7.5,0,11.2,5.1,11.2,10.9S44.5,52,37,52c-7.5,0-11.2-5.1-11.2-10.9S29.5,30.1,37,30.1z M37,35.2
		c-3.6,0-5.5,2.5-5.5,5.8s1.9,5.8,5.5,5.8s5.5-2.5,5.5-5.8S40.6,35.2,37,35.2z"/>
	<path d="M79.1,30.6v21h-5.5V40.4l-4.5,6.9h-3.2l-4.5-6.9v11.2h-5.5v-21h5.2l6.4,9.8l6.4-9.8H79.1z"/>
	<path d="M96.2,30.6c5.2,0,9.1,1.7,9.1,7.2c0,5.5-4,7.2-9.1,7.2h-2.8v6.6h-5.5v-21H96.2z M96.4,35.4h-3v4.8h3c1.7,0,3.2-0.5,3.2-2.4
		C99.6,35.9,98.1,35.4,96.4,35.4z"/>
	<path d="M109,51.6l8.3-21h6l8.3,21h-5.7l-1.2-3.3h-8.7l-1.2,3.3H109z M117.6,43.8h5.4l-2.2-6.1c-0.2-0.5-0.4-1-0.5-2.1
		c-0.2,1.1-0.4,1.6-0.5,2.1L117.6,43.8z"/>
	<path d="M138.1,51.6v-21h5.2l8.2,12.1c-0.1-1-0.1-2.3-0.1-3.5v-8.6h5.5v21h-5.2l-8.2-12c0.1,1,0.1,2.3,0.1,3.4v8.6H138.1z"/>
	<path d="M171.7,51.6v-7.2l-8.2-13.8h6.3l4.6,8.7l4.6-8.7h6.3l-8.2,13.8v7.2H171.7z"/>
</g>
<g>
	<path d="M63.3,5c-1.1,0.7-1.7,1-2.3,1.2l-0.8-1.3c2.3-0.8,4.9-2.5,6.1-4.3h1.6c1,1.6,3.3,3.2,6.1,4.3L73,6.2
		c-0.6-0.3-1.4-0.7-2.3-1.2v0.8h-7.4V5z M71.7,13.9c-0.2-0.3-0.3-0.5-0.6-0.9c-1.9,0.2-5.1,0.4-9.9,0.5L60.9,12c0.3,0,1.6,0,2,0
		c0.4-0.7,1.1-2.2,1.4-3.3h-3.6V7.4h12.6v1.4H66c-0.5,1.1-1,2.3-1.5,3.2c2.6-0.1,2.9-0.1,5.7-0.2c-0.7-0.9-1-1.4-1.7-2L69.8,9
		c0.4,0.4,2,2,3.3,4L71.7,13.9z M70,4.5c-1.5-1.1-2.6-2.3-2.9-2.7c-0.6,0.7-1.3,1.5-2.9,2.7H70z"/>
	<path d="M81.5,13.8H80V8.4c-0.8,0.8-1.3,1-1.7,1.3l-0.6-1.4c1.8-1.1,3.2-2.6,3.8-4.1h-3.6V2.8H80V0.6h1.4v2.2h1.6v1.4
		c-0.2,0.5-0.6,1.2-1.4,2.4c0.7,0.8,1.1,1.1,2,1.7L83,9.6c-0.7-0.5-1-0.9-1.5-1.5V13.8z M86.3,0.6h1.5v4h3v1.5h-3v5.8H91v1.5h-8.3
		v-1.5h3.5V6.1h-2.9V4.6h2.9V0.6z"/>
	<path d="M95.1,7c0.4-1,0.4-2.3,0.4-3.4h1.1c0,2.6-0.2,3.5-0.4,4L95.1,7z M98.8,5c-0.1-0.2-0.2-0.6-0.4-1.3v10.1h-1.5V0.6h1.5v2.6
		l0.8-0.4c0.3,0.5,0.5,1.1,0.6,1.7L98.8,5z M108.1,2.6h-3.5v0.8h3.3v1h-3.3v0.7h3.8v1.1h-9V5.1h3.8V4.4h-3.1v-1h3.1V2.6h-3.5V1.4
		h3.5V0.6h1.4v0.8h3.5V2.6z M107.8,6.8v5.5c0,1.3-0.2,1.5-1.5,1.5h-1.5l-0.3-1.3h1.6c0.3,0,0.3-0.2,0.3-0.5v-0.6h-4.9v2.4h-1.3v-7
		H107.8z M101.5,7.9v0.7h4.9V7.9H101.5z M101.5,9.7v0.8h4.9V9.7H101.5z"/>
	<path d="M115.4,0.7h1.4v1h2.3V3h-2.3v1.3h2.7v1.3h-0.8c-0.1,0.4-0.3,1.6-0.4,1.8h1.1v1.3h-2.5v1.4h2.3v1.3h-2.3v2.4h-1.4v-2.4h-2.3
		v-1.3h2.3V8.7h-2.5V7.4h1.1c-0.1-0.5-0.2-1.3-0.4-1.8h-0.8V4.3h2.6V3h-2.3V1.7h2.3V0.7z M115,5.6c0.2,0.8,0.2,1.1,0.4,1.8h1.6
		c0.2-0.6,0.3-1.3,0.3-1.8H115z M122.7,7.7c0.2,0.5,0.5,1.1,0.8,1.8c0.4-1,0.5-1.5,0.6-2h-2.9v6.3h-1.4V1.1h5.6c0,0.6,0,3-0.3,3.7
		c-0.1,0.2-0.3,0.8-1.1,0.8h-1.8l-0.2-1.3h1.5c0.5,0,0.6,0,0.7-1.9h-2.9v3.8h4.4c-0.1,0.9-0.3,3-1.2,4.7c0.5,0.5,0.9,1,1.7,1.6
		l-0.7,1.4c-0.5-0.4-1.1-0.9-1.7-1.7c-0.6,0.8-1.1,1.2-1.5,1.7l-0.9-1.2c0.4-0.4,0.9-0.7,1.5-1.7c-0.9-1.4-1.2-2.3-1.3-2.8
		L122.7,7.7z"/>
</g>
</svg>
