<?xml version="1.0" encoding="utf-8"?>
<!-- Generator: Adobe Illustrator 22.1.0, SVG Export Plug-In . SVG Version: 6.00 Build 0)  -->
<svg version="1.1" id="レイヤー_1" xmlns="http://www.w3.org/2000/svg" xmlns:xlink="http://www.w3.org/1999/xlink" x="0px"
	 y="0px" viewBox="0 0 161 52" style="enable-background:new 0 0 161 52;" xml:space="preserve">
<g>
	<path d="M2.1,51.6v-21h8.8c4.3,0,8.6,1.5,8.6,7.1c0,3.5-1.7,5.4-4,6.3l5.8,7.6H15l-5-6.8H7.6v6.8C7.6,51.6,2.1,51.6,2.1,51.6z
		 M7.6,40.2h3.5c1.6,0,2.7-0.8,2.7-2.4c0-1.6-1.1-2.4-2.7-2.4H7.6V40.2z"/>
	<path d="M43.1,30.6v4.8h-9.6v3.2h8.7v4.8h-8.7v3.4h9.7v4.8H27.9v-21C27.9,30.6,43.1,30.6,43.1,30.6z"/>
	<path d="M61.3,30.1c2.1,0,4.3,0.5,6.1,1.3v5.3c-1.3-1.1-3.2-1.7-5.1-1.7c-3.3,0-6.6,1.8-6.6,6.4c0,4.1,3.3,5.8,6.6,5.8
		c2.2,0,4.1-0.7,5.3-1.8v5.4c-1.8,0.9-3.9,1.3-6.1,1.3C55.7,52,50,48.9,50,41.4C50,33.4,55.7,30.1,61.3,30.1z"/>
	<path d="M75.6,51.6v-21h8.8c4.3,0,8.6,1.5,8.6,7.1c0,3.5-1.7,5.4-4,6.3l5.8,7.6h-6.3l-5-6.8h-2.4v6.8
		C81.1,51.6,75.6,51.6,75.6,51.6z M81.2,40.2h3.5c1.6,0,2.7-0.8,2.7-2.4c0-1.6-1.1-2.4-2.7-2.4h-3.5V40.2z"/>
	<path d="M119.9,30.6v13c0,6.3-4.8,8.5-9.4,8.5s-9.4-2.1-9.4-8.5v-13h5.5v12.7c0,2.8,1.5,3.8,3.9,3.8s3.9-1,3.9-3.8V30.6H119.9z"/>
	<path d="M134.1,30.6v21h-5.5v-21C128.6,30.6,134.1,30.6,134.1,30.6z"/>
	<path d="M158.1,30.6v4.9h-5.9v16h-5.5v-16h-5.9v-4.9H158.1z"/>
</g>
<g>
	<path d="M50.4,10.1c-1,0.7-3.2,1.9-4.7,2.7L45,11.4c1.5-0.6,3.9-2,4.9-2.6L50.4,10.1z M57.7,5.7c-0.9,1.1-1.9,2.1-3,3
		c1.4,1.6,2.8,2.5,3.7,3l-0.9,1.4c-3.6-2.5-4.5-4.4-5.1-5.8v5.1c0,0.8-0.4,1.4-1.3,1.4h-2.5l-0.2-1.5h2.2c0.3,0,0.4-0.2,0.4-0.3V4.3
		h-5.8V2.9H51V0.6h1.5v2.2h3.2c-1-0.8-1.8-1.1-2.1-1.2l0.9-1.1C55.7,1,56.9,1.8,57,1.9l-0.7,0.9h2.1v1.4h-5.8c0,0.4,0.5,1.9,1.5,3.3
		c1-0.8,1.8-1.7,2.5-2.7L57.7,5.7z M47.1,4.9c0.7,0.6,1.7,1.7,2.3,2.5l-1.2,0.9c-0.6-0.9-1.4-1.8-2.2-2.6L47.1,4.9z"/>
	<path d="M68.4,0.7H70v1.7c0,2.7,0.9,7.3,5.9,9.9l-1,1.4c-2.6-1.3-4.8-3.9-5.8-7.5c-0.9,3.4-3,6-5.8,7.5l-1-1.4c2-1,3.8-2.6,4.7-4.7
		c0.8-1.6,1.2-3.5,1.2-5.2V0.7H68.4z"/>
	<path d="M79.2,7c0.4-1,0.4-2.3,0.4-3.4h1.1c0,2.6-0.2,3.5-0.4,4L79.2,7z M83,5c-0.1-0.2-0.2-0.6-0.4-1.3v10.1h-1.5V0.6h1.5v2.6
		l0.8-0.4c0.3,0.5,0.5,1.1,0.6,1.7L83,5z M92.3,2.6h-3.5v0.8h3.3v1h-3.3v0.7h3.8v1.1h-9V5.1h3.8V4.4h-3.1v-1h3.1V2.6h-3.5V1.4h3.5
		V0.6h1.4v0.8h3.5C92.3,1.4,92.3,2.6,92.3,2.6z M91.9,6.8v5.5c0,1.3-0.2,1.5-1.5,1.5h-1.5l-0.3-1.3h1.6c0.3,0,0.3-0.2,0.3-0.5v-0.6
		h-4.9v2.4h-1.3v-7C84.3,6.8,91.9,6.8,91.9,6.8z M85.6,7.9v0.7h4.9V7.9H85.6z M85.6,9.7v0.8h4.9V9.7H85.6z"/>
	<path d="M99.6,0.7h1.4v1h2.3V3H101v1.3h2.7v1.3h-0.8c-0.1,0.4-0.3,1.6-0.4,1.8h1.1v1.3H101v1.4h2.3v1.3H101v2.4h-1.4v-2.4h-2.3
		v-1.3h2.3V8.7h-2.5V7.4h1.1c-0.1-0.5-0.2-1.3-0.4-1.8H97V4.3h2.6V3h-2.3V1.7h2.3V0.7z M99.2,5.6c0.2,0.8,0.2,1.1,0.4,1.8h1.6
		c0.2-0.6,0.3-1.3,0.3-1.8C101.5,5.6,99.2,5.6,99.2,5.6z M106.9,7.7c0.2,0.5,0.5,1.1,0.8,1.8c0.4-1,0.5-1.5,0.6-2h-2.9v6.3H104V1.1
		h5.6c0,0.6,0,3-0.3,3.7c-0.1,0.2-0.3,0.8-1.1,0.8h-1.8l-0.2-1.3h1.5c0.5,0,0.6,0,0.7-1.9h-2.9v3.8h4.4c-0.1,0.9-0.3,3-1.2,4.7
		c0.5,0.5,0.9,1,1.7,1.6l-0.7,1.4c-0.5-0.4-1.1-0.9-1.7-1.7c-0.6,0.8-1.1,1.2-1.5,1.7l-0.9-1.2c0.4-0.4,0.9-0.7,1.5-1.7
		c-0.9-1.4-1.2-2.3-1.3-2.8L106.9,7.7z"/>
</g>
</svg>
