<?xml version="1.0" encoding="utf-8"?>
<!-- Generator: Adobe Illustrator 22.1.0, SVG Export Plug-In . SVG Version: 6.00 Build 0)  -->
<svg version="1.1" id="レイヤー_1" xmlns="http://www.w3.org/2000/svg" xmlns:xlink="http://www.w3.org/1999/xlink" x="0px"
	 y="0px" viewBox="0 0 156 52" style="enable-background:new 0 0 156 52;" xml:space="preserve">
<style type="text/css">
	.st0{fill:#84FF00;}
</style>
<g>
	<path class="st0" d="M9.3,30.1c2.6,0,5.2,0.6,7,1.7v5.1c-1.8-1.4-4.2-2-6.6-2c-2,0-2.7,0.6-2.7,1.4c0.1,2.7,11,1.8,11,9.3
		c0,5-3.8,6.4-8.4,6.4c-3,0-5.9-0.7-8.1-1.9v-5.3c2.5,1.7,5.3,2.4,7.6,2.4c2.2,0,3.1-0.4,3.1-1.4c0-3-10.9-2-10.9-9.5
		C1.4,32.1,5,30.1,9.3,30.1z"/>
	<path class="st0" d="M40.7,30.6v4.8h-9.6v3.2h8.7v4.8h-8.7v3.4h9.7v4.8H25.6v-21C25.6,30.6,40.7,30.6,40.7,30.6z"/>
	<path class="st0" d="M49.1,51.6v-21h8.8c4.3,0,8.6,1.5,8.6,7.1c0,3.5-1.7,5.4-4,6.3l5.8,7.6H62l-5-6.8h-2.4v6.8
		C54.6,51.6,49.1,51.6,49.1,51.6z M54.6,40.2h3.5c1.6,0,2.7-0.8,2.7-2.4c0-1.6-1.1-2.4-2.7-2.4h-3.5V40.2z"/>
	<path class="st0" d="M80,51.6l-7.9-21h6L82.9,45l4.7-14.4h6l-7.9,21H80z"/>
	<path class="st0" d="M105.8,30.6v21h-5.5v-21C100.3,30.6,105.8,30.6,105.8,30.6z"/>
	<path class="st0" d="M124.8,30.1c2.1,0,4.3,0.5,6.1,1.3v5.3c-1.3-1.1-3.2-1.7-5.1-1.7c-3.3,0-6.6,1.8-6.6,6.4
		c0,4.1,3.3,5.8,6.6,5.8c2.2,0,4.1-0.7,5.3-1.8v5.4c-1.8,0.9-3.9,1.3-6.1,1.3c-5.8,0-11.5-3.1-11.5-10.6
		C113.4,33.4,119.1,30.1,124.8,30.1z"/>
	<path class="st0" d="M154.2,30.6v4.8h-9.6v3.2h8.7v4.8h-8.7v3.4h9.7v4.8H139v-21C139,30.6,154.2,30.6,154.2,30.6z"/>
</g>
<g>
	<path class="st0" d="M22.6,3.8v1.5h-2.3v1.6c0,5.1-4.4,6-6.7,6.3L13,11.7c2.7-0.3,5.6-1.1,5.6-4.8V5.3h-4.4v3.6h-1.6V5.3h-2.3V3.8
		h2.3V1.3h1.6v2.5h4.4V1.3h1.6v2.6L22.6,3.8L22.6,3.8z"/>
	<path class="st0" d="M39.1,6.4V8h-12V6.4H39.1z"/>
	<path class="st0" d="M46.6,5.8c1.5-0.4,3.6-0.9,6.2-2.3L53.6,5c-3.3,1.5-5.8,2.1-6.9,2.3v2.9c0,0.9,0.2,1,1.6,1h3.6
		c1,0,2.3-0.1,3.1-0.3l0.1,1.6c-0.8,0.1-2,0.2-2.9,0.2H48c-1.8,0-2.9-0.3-2.9-2.2V1.7h1.6L46.6,5.8L46.6,5.8z M53.4,0.8
		c0.6,0.9,1,1.6,1.4,2.6l-1,0.6c-0.4-1.1-0.7-1.7-1.4-2.7L53.4,0.8z M55.5,0.1c0.6,0.8,1,1.6,1.4,2.6l-1,0.6
		c-0.4-1.2-0.7-1.7-1.3-2.7L55.5,0.1z"/>
	<path class="st0" d="M70.9,1.9c-0.6,2.9-1.7,4.5-2.6,5.8c0.8,0.6,2.6,2,4.7,4.1l-1.3,1.3c-0.7-0.7-1.9-2-4.3-4.2
		c-1.9,2.1-3.9,3.4-5.6,4.2l-0.9-1.3c1.7-0.7,5.9-2.8,8-8.3h-7.2V1.9H70.9z"/>
	<path class="st0" d="M83.2,11.5c1.5-0.1,4.6-0.6,4.6-4.4c0-1.6-0.6-3.9-3.8-4c-0.4,6.2-2.3,8.8-4.2,8.8c-1.6,0-2.7-1.9-2.7-4
		c0-3.9,2.9-6.3,6.5-6.3c4.4,0,5.8,2.9,5.8,5.5c0,5.3-4.7,5.8-5.7,5.9L83.2,11.5z M78.6,8c0,0.8,0.3,2.3,1.2,2.3
		c0.5,0,0.9-0.5,1.3-1.1c1-1.7,1.2-3.9,1.4-6C80,3.6,78.6,5.6,78.6,8z"/>
	<path class="st0" d="M96.9,7.6c-0.5,0.6-0.7,1.2-0.7,1.7c0,1.5,1.6,1.9,3.8,1.9c2.4,0,3.9-0.2,4.7-0.3v1.6
		c-0.6,0.1-2.1,0.2-4.2,0.2c-2.5,0-3.4-0.2-4.4-0.7c-1.1-0.6-1.5-1.5-1.5-2.6c0-0.9,0.3-1.7,1-2.6L96.9,7.6z M102.8,3.7
		c-1.2,0.4-2.1,0.8-3.4,1.7l-1.2-0.9c0.6-0.4,1-0.6,1.7-0.9c-0.6,0-2.6,0-3.7,0.1c-0.4,0-0.6,0-0.9,0V2.1h7.5V3.7z M103.5,0.7
		c0.6,0.9,0.9,1.5,1.4,2.7l-1,0.5c-0.4-1.1-0.7-1.7-1.3-2.7L103.5,0.7z M105.6,0.1c0.6,0.8,0.9,1.5,1.4,2.7l-1,0.5
		c-0.4-1.1-0.7-1.8-1.3-2.7L105.6,0.1z"/>
	<path class="st0" d="M110.7,12.5c0.4-1.2,0.6-2.5,0.6-3.7l1.3,0.2c-0.1,1.9-0.3,2.9-0.6,3.9L110.7,12.5z M116.2,2.7
		c-0.5,0.7-1.4,2.2-2.7,3.9c0.2,0,1.2-0.1,1.4-0.1c-0.1-0.2-0.1-0.4-0.3-0.8l1.1-0.4c0.4,0.8,0.6,1.7,0.9,2.6l-1.1,0.4
		c0-0.3-0.1-0.4-0.1-0.6c-0.3,0-0.6,0.1-0.9,0.1v6H113V7.9C111.7,8,111.1,8,110.8,8l-0.1-1.3c0.3,0,0.3,0,1.1,0
		c0.4-0.5,0.6-0.7,0.8-1.1c-0.2-0.3-1.1-1.2-1.9-1.8l0.7-1.2c0.3,0.3,0.4,0.3,0.4,0.4c0.4-0.6,0.9-1.5,1.3-2.4l1.3,0.5
		c-0.5,1-1,1.8-1.6,2.7C113,4,113,4,113.4,4.4c0.7-1,0.9-1.4,1.5-2.3L116.2,2.7z M115.2,12.1c0-1.3-0.3-2.9-0.4-3.1l1.1-0.2
		c0.3,1.7,0.4,2.2,0.5,3L115.2,12.1z M116,5.5c2.3-0.8,2.6-2.7,2.7-3h-2.2V1.1h7.3c0,2-0.2,3.8-0.5,4.5c-0.2,0.5-0.6,0.9-1.2,0.9
		h-1.9L119.9,5h1.8c0.3,0,0.6,0,0.8-2.6h-2.2c-0.1,0.7-0.7,3.1-3.4,4.4L116,5.5z M123.5,13.5h-6.7V7.3h6.7V13.5z M122.2,8.7h-3.9
		v3.5h3.9V8.7z"/>
	<path class="st0" d="M140.7,6.6c-2.7-1.2-4.8-2.9-5.9-4.5c-1.2,1.6-3.3,3.3-5.9,4.4l-0.8-1.4c2.5-1,4.5-2.2,6.2-4.4h1.3
		c1.1,1.8,3.2,3.3,6,4.4L140.7,6.6z M132.8,5.7v3c0,3.3-2,4.7-2.6,5.2l-1.2-1.1c0.9-0.7,2.4-1.8,2.4-4.1v-3
		C131.4,5.7,132.8,5.7,132.8,5.7z M138.3,5.7v8.1h-1.5V5.7H138.3z"/>
</g>
</svg>
