<?xml version="1.0" encoding="utf-8"?>
<!-- Generator: Adobe Illustrator 22.1.0, SVG Export Plug-In . SVG Version: 6.00 Build 0)  -->
<svg version="1.1" id="レイヤー_1" xmlns="http://www.w3.org/2000/svg" xmlns:xlink="http://www.w3.org/1999/xlink" x="0px"
	 y="0px" viewBox="0 0 140 52" style="enable-background:new 0 0 140 52;" xml:space="preserve">
<g>
	<path d="M34.6,30.6l-6.4,21h-6l-3.6-13l-3.6,13h-6l-6.4-21h6l3.6,14.8l4-14.8h4.9l4,14.8l3.6-14.8H34.6z"/>
	<path d="M50.9,30.1c7.5,0,11.2,5.1,11.2,10.9S58.4,52,50.9,52c-7.5,0-11.2-5.1-11.2-10.9S43.4,30.1,50.9,30.1z M50.9,35.2
		c-3.6,0-5.5,2.5-5.5,5.8s1.9,5.8,5.5,5.8s5.5-2.5,5.5-5.8S54.5,35.2,50.9,35.2z"/>
	<path d="M69.8,51.6v-21h8.8c4.3,0,8.6,1.5,8.6,7.1c0,3.5-1.7,5.4-4,6.3l5.8,7.6h-6.3l-5-6.8h-2.4v6.8H69.8z M75.3,40.2h3.5
		c1.6,0,2.7-0.8,2.7-2.4c0-1.6-1.1-2.4-2.7-2.4h-3.5V40.2z"/>
	<path d="M95.6,51.6v-21h5.5v7.9h2.6l4.8-7.9h6.1l-6.6,10.2l6.9,10.8h-6.1l-5.1-8.1h-2.6v8.1H95.6z"/>
	<path d="M128.7,30.1c2.6,0,5.2,0.6,7,1.7v5.1c-1.8-1.4-4.2-2-6.6-2c-2,0-2.7,0.6-2.7,1.4c0,2.7,10.9,1.9,10.9,9.3
		c0,5-3.8,6.4-8.4,6.4c-3,0-5.8-0.7-8.1-1.9v-5.3c2.5,1.7,5.3,2.4,7.6,2.4c2.2,0,3.1-0.4,3.1-1.4c0-3-10.9-2-10.9-9.5
		C120.8,32.1,124.4,30.1,128.7,30.1z"/>
</g>
<g>
	<path d="M37.7,3.5c-0.2,0.5-0.3,0.7-0.5,1.1l-1.2-0.7c0.6-1,1-2,1.1-3.1L38.4,1c-0.1,0.4-0.1,0.6-0.3,1.2h1.1V0.6h1.4v1.5h3v1.3h-3
		v1.3h3.2v1.3h-3.2v1.2h2.8v4.5c0,0.8-0.3,1-1,1h-1.3L41,11.4h0.8c0.3,0,0.3-0.3,0.3-0.4V8.6h-1.5v5.2h-1.4V8.6h-1.4v4.3h-1.4V7.3
		h2.7V6.1H36V4.8h3.3V3.5H37.7z M44.4,1.4h1.4v9h-1.4V1.4z M47,0.6h1.5v12.1c0,0.9-0.7,1.1-1.2,1.1h-2.1L45,12.3h1.7
		c0.3,0,0.4-0.1,0.4-0.4V0.6z"/>
	<path d="M55,6.5c-0.5,0.6-0.9,1-1.3,1.3L53,6.4c1.6-1.5,2.5-3.1,3.1-5.8l1.5,0.3c-0.2,0.7-0.5,1.8-1.2,3.2v9.7H55V6.5z M61,0.8
		c-0.1,0.5-0.2,1-0.6,1.8h6V4h-4.7v2h4.3v1.4h-4.3v2h4.3v1.4h-4.3v3.1h-1.5V4h-0.5c-0.9,1.7-1.7,2.5-2.1,3l-1-1.2
		c1.6-1.5,2.4-3.8,2.8-5.1L61,0.8z"/>
	<path d="M77.8,5.4v0.9h4.7v1.2h-4.8c0,0.3-0.1,0.6-0.2,1h6.2v1.3h-4.9c1.2,1.5,3.3,2.1,4.9,2.4l-0.6,1.5c-3.3-0.8-5.1-2.5-5.9-3.9
		h-0.2c-0.5,1.1-1.5,2.9-5.9,3.9l-0.6-1.5c0.9-0.2,2.7-0.4,4.1-1.5c0.4-0.3,0.6-0.7,0.8-0.9h-4.8V8.5H76c0.1-0.2,0.1-0.5,0.2-1h-4.4
		V6.3h4.5V5.4h-3.6V4.1h3.6V3.3h1.4v0.9h3.8v1.3H77.8z M76.4,0.6H78v1h5.5v3H82V2.9h-9.6v1.7H71v-3h5.4V0.6z"/>
	<path d="M88.1,6.8c0.2,0,0.6,0,0.9,0c0.2-0.2,0.3-0.5,0.8-1.2c-0.3-0.3-1.1-1.2-1.8-1.8l0.7-1.1C88.9,2.8,89,2.9,89,3
		c0.2-0.3,0.9-1.5,1.2-2.3l1.3,0.5c-0.7,1.4-1.5,2.5-1.6,2.7c0.4,0.4,0.5,0.5,0.6,0.6c0.5-0.7,1-1.5,1.4-2.3l1.2,0.5
		c-2,3.1-2.2,3.4-2.7,4c0.5,0,1,0,1.5-0.1c-0.3-0.6-0.3-0.7-0.4-0.9l1.1-0.4c0.3,0.5,0.7,1.6,1,2.4l-1.1,0.4c0-0.2-0.1-0.3-0.1-0.5
		c-0.1,0-0.7,0.1-1,0.1v6h-1.3V7.9c-1.1,0.1-1.5,0.1-2,0.1L88.1,6.8z M89.7,8.9c-0.1,2.1-0.2,3-0.5,3.9L88,12.5
		c0.4-1.3,0.5-2.9,0.5-3.7L89.7,8.9z M93,8.8c0.2,1.2,0.3,1.9,0.3,2.7l-1.1,0.1c0-0.9-0.1-2.1-0.2-2.7L93,8.8z M92.5,12.6
		c1.5-0.3,2.6-1,2.6-1h-1.3V6.3h6.9v5.3H99c0.9,0.5,1.6,0.8,2.5,1l-0.7,1.2c-1.7-0.6-2.3-1.1-2.8-1.5l0.8-0.7h-3.4l0.8,0.7
		c-0.9,0.8-2.3,1.3-3,1.5L92.5,12.6z M96.6,0.6H98v0.7h3.1v1.1H98v0.6h2.8V4H98v0.6h3.4v1h-8.2v-1h3.4V4h-2.7V3.1h2.7V2.5h-3V1.4h3
		V0.6z M95.1,7.3v0.6h4.3V7.3H95.1z M95.1,8.6v0.6h4.3V8.6H95.1z M95.1,10v0.6h4.3V10H95.1z"/>
</g>
</svg>
